<svg width="1429" height="662" viewBox="0 0 1429 662" fill="none" xmlns="http://www.w3.org/2000/svg">
<path d="M42.6957 101.647C42.6957 100.855 43.1776 100.212 43.772 100.212C44.3665 100.212 44.8484 100.855 44.8484 101.647C44.8484 102.44 44.3665 103.083 43.772 103.083C43.1776 103.083 42.6957 102.44 42.6957 101.647Z" fill="#FC3150"/>
<path d="M42.6957 87.4754C42.6957 86.7819 43.1776 86.2197 43.772 86.2197C44.3665 86.2197 44.8484 86.7819 44.8484 87.4754C44.8484 88.169 44.3665 88.7312 43.772 88.7312C43.1776 88.7312 42.6957 88.169 42.6957 87.4754Z" fill="#FC3150"/>
<path d="M42.6957 73.3034C42.6957 72.7089 43.1776 72.227 43.772 72.227C44.3665 72.227 44.8484 72.7089 44.8484 73.3034C44.8484 73.8978 44.3665 74.3797 43.772 74.3797C43.1776 74.3797 42.6957 73.8978 42.6957 73.3034Z" fill="#FC3150"/>
<path d="M42.6957 59.3108C42.6957 58.7163 43.1776 58.2344 43.772 58.2344C44.3665 58.2344 44.8484 58.7163 44.8484 59.3108C44.8484 59.9052 44.3665 60.3871 43.772 60.3871C43.1776 60.3871 42.6957 59.9052 42.6957 59.3108Z" fill="#FC3150"/>
<path d="M42.6957 44.9593C42.6957 44.3649 43.1776 43.883 43.772 43.883C44.3665 43.883 44.8484 44.3649 44.8484 44.9593C44.8484 45.5538 44.3665 46.0357 43.772 46.0357C43.1776 46.0357 42.6957 45.5538 42.6957 44.9593Z" fill="#FC3150"/>
<path d="M42.6957 31.1461C42.6957 30.4525 43.1776 29.8903 43.772 29.8903C44.3665 29.8903 44.8484 30.4525 44.8484 31.1461C44.8484 31.8396 44.3665 32.4018 43.772 32.4018C43.1776 32.4018 42.6957 31.8396 42.6957 31.1461Z" fill="#FC3150"/>
<path d="M42.6957 17.1534C42.6957 16.4598 43.1776 15.8976 43.772 15.8976C44.3665 15.8976 44.8484 16.4598 44.8484 17.1534C44.8484 17.8469 44.3665 18.4091 43.772 18.4091C43.1776 18.4091 42.6957 17.8469 42.6957 17.1534Z" fill="#FC3150"/>
<path d="M42.6957 3.1607C42.6957 2.46717 43.1776 1.90494 43.772 1.90494C44.3665 1.90494 44.8484 2.46717 44.8484 3.1607C44.8484 3.85423 44.3665 4.41644 43.772 4.41644C43.1776 4.41644 42.6957 3.85423 42.6957 3.1607Z" fill="#FC3150"/>
<path d="M28.3442 101.647C28.3442 100.855 28.8261 100.212 29.4206 100.212C30.015 100.212 30.4969 100.855 30.4969 101.647C30.4969 102.44 30.015 103.083 29.4206 103.083C28.8261 103.083 28.3442 102.44 28.3442 101.647Z" fill="#FC3150"/>
<path d="M28.3442 87.4754C28.3442 86.7819 28.8261 86.2197 29.4206 86.2197C30.015 86.2197 30.4969 86.7819 30.4969 87.4754C30.4969 88.169 30.015 88.7312 29.4206 88.7312C28.8261 88.7312 28.3442 88.169 28.3442 87.4754Z" fill="#FC3150"/>
<path d="M28.3442 73.3034C28.3442 72.7089 28.8261 72.227 29.4206 72.227C30.015 72.227 30.4969 72.7089 30.4969 73.3034C30.4969 73.8978 30.015 74.3797 29.4206 74.3797C28.8261 74.3797 28.3442 73.8978 28.3442 73.3034Z" fill="#FC3150"/>
<path d="M28.3442 59.3107C28.3442 58.7162 28.8261 58.2343 29.4206 58.2343C30.015 58.2343 30.4969 58.7162 30.4969 59.3107C30.4969 59.9052 30.015 60.3871 29.4206 60.3871C28.8261 60.3871 28.3442 59.9052 28.3442 59.3107Z" fill="#FC3150"/>
<path d="M28.3442 44.9593C28.3442 44.3649 28.8261 43.883 29.4206 43.883C30.015 43.883 30.4969 44.3649 30.4969 44.9593C30.4969 45.5538 30.015 46.0357 29.4206 46.0357C28.8261 46.0357 28.3442 45.5538 28.3442 44.9593Z" fill="#FC3150"/>
<path d="M28.3442 31.1461C28.3442 30.4525 28.8261 29.8903 29.4206 29.8903C30.015 29.8903 30.4969 30.4525 30.4969 31.1461C30.4969 31.8396 30.015 32.4018 29.4206 32.4018C28.8261 32.4018 28.3442 31.8396 28.3442 31.1461Z" fill="#FC3150"/>
<path d="M28.3442 17.1534C28.3442 16.4598 28.8261 15.8976 29.4206 15.8976C30.015 15.8976 30.4969 16.4598 30.4969 17.1534C30.4969 17.8469 30.015 18.4091 29.4206 18.4091C28.8261 18.4091 28.3442 17.8469 28.3442 17.1534Z" fill="#FC3150"/>
<path d="M28.3442 3.16073C28.3442 2.4672 28.8261 1.90497 29.4206 1.90497C30.015 1.90497 30.4969 2.4672 30.4969 3.16073C30.4969 3.85426 30.015 4.41647 29.4206 4.41647C28.8261 4.41647 28.3442 3.85426 28.3442 3.16073Z" fill="#FC3150"/>
<path d="M14.3516 101.647C14.3516 100.855 14.8335 100.212 15.4279 100.212C16.0224 100.212 16.5043 100.855 16.5043 101.647C16.5043 102.44 16.0224 103.083 15.4279 103.083C14.8335 103.083 14.3516 102.44 14.3516 101.647Z" fill="#FC3150"/>
<path d="M14.3516 87.4754C14.3516 86.7819 14.8335 86.2197 15.4279 86.2197C16.0224 86.2197 16.5043 86.7819 16.5043 87.4754C16.5043 88.169 16.0224 88.7312 15.4279 88.7312C14.8335 88.7312 14.3516 88.169 14.3516 87.4754Z" fill="#FC3150"/>
<path d="M14.3516 73.3034C14.3516 72.7089 14.8335 72.227 15.4279 72.227C16.0224 72.227 16.5043 72.7089 16.5043 73.3034C16.5043 73.8978 16.0224 74.3797 15.4279 74.3797C14.8335 74.3797 14.3516 73.8978 14.3516 73.3034Z" fill="#FC3150"/>
<path d="M14.3516 59.3107C14.3516 58.7162 14.8335 58.2343 15.4279 58.2343C16.0224 58.2343 16.5043 58.7162 16.5043 59.3107C16.5043 59.9052 16.0224 60.3871 15.4279 60.3871C14.8335 60.3871 14.3516 59.9052 14.3516 59.3107Z" fill="#FC3150"/>
<path d="M14.3516 44.9593C14.3516 44.3649 14.8335 43.883 15.4279 43.883C16.0224 43.883 16.5043 44.3649 16.5043 44.9593C16.5043 45.5538 16.0224 46.0357 15.4279 46.0357C14.8335 46.0357 14.3516 45.5538 14.3516 44.9593Z" fill="#FC3150"/>
<path d="M14.3516 31.1461C14.3516 30.4525 14.8335 29.8903 15.4279 29.8903C16.0224 29.8903 16.5043 30.4525 16.5043 31.1461C16.5043 31.8396 16.0224 32.4018 15.4279 32.4018C14.8335 32.4018 14.3516 31.8396 14.3516 31.1461Z" fill="#FC3150"/>
<path d="M14.3516 17.1534C14.3516 16.4598 14.8335 15.8976 15.4279 15.8976C16.0224 15.8976 16.5043 16.4598 16.5043 17.1534C16.5043 17.8469 16.0224 18.4091 15.4279 18.4091C14.8335 18.4091 14.3516 17.8469 14.3516 17.1534Z" fill="#FC3150"/>
<path d="M14.3516 3.16073C14.3516 2.4672 14.8335 1.90497 15.4279 1.90497C16.0224 1.90497 16.5043 2.4672 16.5043 3.16073C16.5043 3.85426 16.0224 4.41647 15.4279 4.41647C14.8335 4.41647 14.3516 3.85426 14.3516 3.16073Z" fill="#FC3150"/>
<path d="M9.50663e-05 101.647C9.50316e-05 100.855 0.562305 100.212 1.25584 100.212C1.94937 100.212 2.5116 100.855 2.5116 101.647C2.5116 102.44 1.94937 103.083 1.25584 103.083C0.562305 103.083 9.51009e-05 102.44 9.50663e-05 101.647Z" fill="#FC3150"/>
<path d="M9.50741e-05 87.4754C9.50438e-05 86.7819 0.562305 86.2197 1.25584 86.2197C1.94937 86.2197 2.5116 86.7819 2.5116 87.4754C2.5116 88.169 1.94937 88.7312 1.25584 88.7312C0.562305 88.7312 9.51044e-05 88.169 9.50741e-05 87.4754Z" fill="#FC3150"/>
<path d="M9.5082e-05 73.3034C9.5056e-05 72.7089 0.562305 72.227 1.25584 72.227C1.94937 72.227 2.5116 72.7089 2.5116 73.3034C2.5116 73.8978 1.94937 74.3797 1.25584 74.3797C0.562305 74.3797 9.51079e-05 73.8978 9.5082e-05 73.3034Z" fill="#FC3150"/>
<path d="M9.5082e-05 59.3107C9.5056e-05 58.7162 0.562305 58.2343 1.25584 58.2343C1.94937 58.2343 2.5116 58.7162 2.5116 59.3107C2.5116 59.9052 1.94937 60.3871 1.25584 60.3871C0.562305 60.3871 9.51079e-05 59.9052 9.5082e-05 59.3107Z" fill="#FC3150"/>
<path d="M9.5082e-05 44.9593C9.5056e-05 44.3648 0.562305 43.8829 1.25584 43.8829C1.94937 43.8829 2.5116 44.3648 2.5116 44.9593C2.5116 45.5538 1.94937 46.0356 1.25584 46.0356C0.562305 46.0356 9.51079e-05 45.5538 9.5082e-05 44.9593Z" fill="#FC3150"/>
<path d="M9.50741e-05 31.1461C9.50438e-05 30.4525 0.562305 29.8903 1.25584 29.8903C1.94937 29.8903 2.5116 30.4525 2.5116 31.1461C2.5116 31.8396 1.94937 32.4018 1.25584 32.4018C0.562305 32.4018 9.51044e-05 31.8396 9.50741e-05 31.1461Z" fill="#FC3150"/>
<path d="M9.50741e-05 17.1534C9.50438e-05 16.4598 0.562305 15.8976 1.25584 15.8976C1.94937 15.8976 2.5116 16.4598 2.5116 17.1534C2.5116 17.8469 1.94937 18.4091 1.25584 18.4091C0.562305 18.4091 9.51044e-05 17.8469 9.50741e-05 17.1534Z" fill="#FC3150"/>
<path d="M9.50741e-05 3.16073C9.50438e-05 2.4672 0.562305 1.90497 1.25584 1.90497C1.94937 1.90497 2.5116 2.4672 2.5116 3.16073C2.5116 3.85426 1.94937 4.41647 1.25584 4.41647C0.562305 4.41647 9.51044e-05 3.85426 9.50741e-05 3.16073Z" fill="#FC3150"/>
<path d="M1330.48 114.408C1330.48 113.615 1330 112.973 1329.4 112.973C1328.81 112.973 1328.33 113.615 1328.33 114.408C1328.33 115.201 1328.81 115.843 1329.4 115.843C1330 115.843 1330.48 115.201 1330.48 114.408Z" fill="#FC3150"/>
<path d="M1330.48 100.236C1330.48 99.5425 1330 98.9803 1329.4 98.9803C1328.81 98.9803 1328.33 99.5425 1328.33 100.236C1328.33 100.93 1328.81 101.492 1329.4 101.492C1330 101.492 1330.48 100.93 1330.48 100.236Z" fill="#FC3150"/>
<path d="M1330.48 86.0639C1330.48 85.4695 1330 84.9876 1329.4 84.9876C1328.81 84.9876 1328.33 85.4695 1328.33 86.0639C1328.33 86.6584 1328.81 87.1403 1329.4 87.1403C1330 87.1403 1330.48 86.6584 1330.48 86.0639Z" fill="#FC3150"/>
<path d="M1330.48 72.0714C1330.48 71.4769 1330 70.995 1329.4 70.995C1328.81 70.995 1328.33 71.4769 1328.33 72.0714C1328.33 72.6658 1328.81 73.1477 1329.4 73.1477C1330 73.1477 1330.48 72.6658 1330.48 72.0714Z" fill="#FC3150"/>
<path d="M1330.48 57.7199C1330.48 57.1254 1330 56.6435 1329.4 56.6435C1328.81 56.6435 1328.33 57.1254 1328.33 57.7199C1328.33 58.3143 1328.81 58.7962 1329.4 58.7962C1330 58.7962 1330.48 58.3143 1330.48 57.7199Z" fill="#FC3150"/>
<path d="M1330.48 43.9066C1330.48 43.2131 1330 42.6509 1329.4 42.6509C1328.81 42.6509 1328.33 43.2131 1328.33 43.9066C1328.33 44.6002 1328.81 45.1624 1329.4 45.1624C1330 45.1624 1330.48 44.6002 1330.48 43.9066Z" fill="#FC3150"/>
<path d="M1330.48 29.914C1330.48 29.2204 1330 28.6582 1329.4 28.6582C1328.81 28.6582 1328.33 29.2204 1328.33 29.914C1328.33 30.6075 1328.81 31.1697 1329.4 31.1697C1330 31.1697 1330.48 30.6075 1330.48 29.914Z" fill="#FC3150"/>
<path d="M1330.48 15.9213C1330.48 15.2278 1330 14.6655 1329.4 14.6655C1328.81 14.6655 1328.33 15.2278 1328.33 15.9213C1328.33 16.6148 1328.81 17.177 1329.4 17.177C1330 17.177 1330.48 16.6148 1330.48 15.9213Z" fill="#FC3150"/>
<path d="M1344.83 114.408C1344.83 113.615 1344.35 112.973 1343.75 112.973C1343.16 112.973 1342.68 113.615 1342.68 114.408C1342.68 115.201 1343.16 115.843 1343.75 115.843C1344.35 115.843 1344.83 115.201 1344.83 114.408Z" fill="#FC3150"/>
<path d="M1344.83 100.236C1344.83 99.5425 1344.35 98.9803 1343.75 98.9803C1343.16 98.9803 1342.68 99.5425 1342.68 100.236C1342.68 100.93 1343.16 101.492 1343.75 101.492C1344.35 101.492 1344.83 100.93 1344.83 100.236Z" fill="#FC3150"/>
<path d="M1344.83 86.0639C1344.83 85.4695 1344.35 84.9876 1343.75 84.9876C1343.16 84.9876 1342.68 85.4695 1342.68 86.0639C1342.68 86.6584 1343.16 87.1403 1343.75 87.1403C1344.35 87.1403 1344.83 86.6584 1344.83 86.0639Z" fill="#FC3150"/>
<path d="M1344.83 72.0713C1344.83 71.4769 1344.35 70.995 1343.75 70.995C1343.16 70.995 1342.68 71.4769 1342.68 72.0713C1342.68 72.6658 1343.16 73.1477 1343.75 73.1477C1344.35 73.1477 1344.83 72.6658 1344.83 72.0713Z" fill="#FC3150"/>
<path d="M1344.83 57.7199C1344.83 57.1254 1344.35 56.6435 1343.75 56.6435C1343.16 56.6435 1342.68 57.1254 1342.68 57.7199C1342.68 58.3143 1343.16 58.7962 1343.75 58.7962C1344.35 58.7962 1344.83 58.3143 1344.83 57.7199Z" fill="#FC3150"/>
<path d="M1344.83 43.9066C1344.83 43.2131 1344.35 42.6509 1343.75 42.6509C1343.16 42.6509 1342.68 43.2131 1342.68 43.9066C1342.68 44.6002 1343.16 45.1624 1343.75 45.1624C1344.35 45.1624 1344.83 44.6002 1344.83 43.9066Z" fill="#FC3150"/>
<path d="M1344.83 29.914C1344.83 29.2204 1344.35 28.6582 1343.75 28.6582C1343.16 28.6582 1342.68 29.2204 1342.68 29.914C1342.68 30.6075 1343.16 31.1697 1343.75 31.1697C1344.35 31.1697 1344.83 30.6075 1344.83 29.914Z" fill="#FC3150"/>
<path d="M1344.83 15.9213C1344.83 15.2278 1344.35 14.6655 1343.75 14.6655C1343.16 14.6655 1342.68 15.2278 1342.68 15.9213C1342.68 16.6148 1343.16 17.177 1343.75 17.177C1344.35 17.177 1344.83 16.6148 1344.83 15.9213Z" fill="#FC3150"/>
<path d="M1358.82 114.408C1358.82 113.615 1358.34 112.973 1357.75 112.973C1357.15 112.973 1356.67 113.615 1356.67 114.408C1356.67 115.201 1357.15 115.843 1357.75 115.843C1358.34 115.843 1358.82 115.201 1358.82 114.408Z" fill="#FC3150"/>
<path d="M1358.82 100.236C1358.82 99.5425 1358.34 98.9803 1357.75 98.9803C1357.15 98.9803 1356.67 99.5425 1356.67 100.236C1356.67 100.93 1357.15 101.492 1357.75 101.492C1358.34 101.492 1358.82 100.93 1358.82 100.236Z" fill="#FC3150"/>
<path d="M1358.82 86.0639C1358.82 85.4695 1358.34 84.9876 1357.75 84.9876C1357.15 84.9876 1356.67 85.4695 1356.67 86.0639C1356.67 86.6584 1357.15 87.1403 1357.75 87.1403C1358.34 87.1403 1358.82 86.6584 1358.82 86.0639Z" fill="#FC3150"/>
<path d="M1358.82 72.0713C1358.82 71.4769 1358.34 70.995 1357.75 70.995C1357.15 70.995 1356.67 71.4769 1356.67 72.0713C1356.67 72.6658 1357.15 73.1477 1357.75 73.1477C1358.34 73.1477 1358.82 72.6658 1358.82 72.0713Z" fill="#FC3150"/>
<path d="M1358.82 57.7199C1358.82 57.1254 1358.34 56.6435 1357.75 56.6435C1357.15 56.6435 1356.67 57.1254 1356.67 57.7199C1356.67 58.3143 1357.15 58.7962 1357.75 58.7962C1358.34 58.7962 1358.82 58.3143 1358.82 57.7199Z" fill="#FC3150"/>
<path d="M1358.82 43.9066C1358.82 43.2131 1358.34 42.6509 1357.75 42.6509C1357.15 42.6509 1356.67 43.2131 1356.67 43.9066C1356.67 44.6001 1357.15 45.1624 1357.75 45.1624C1358.34 45.1624 1358.82 44.6001 1358.82 43.9066Z" fill="#FC3150"/>
<path d="M1358.82 29.914C1358.82 29.2204 1358.34 28.6582 1357.75 28.6582C1357.15 28.6582 1356.67 29.2204 1356.67 29.914C1356.67 30.6075 1357.15 31.1697 1357.75 31.1697C1358.34 31.1697 1358.82 30.6075 1358.82 29.914Z" fill="#FC3150"/>
<path d="M1358.82 15.9213C1358.82 15.2278 1358.34 14.6655 1357.75 14.6655C1357.15 14.6655 1356.67 15.2278 1356.67 15.9213C1356.67 16.6148 1357.15 17.177 1357.75 17.177C1358.34 17.177 1358.82 16.6148 1358.82 15.9213Z" fill="#FC3150"/>
<path d="M1373.17 114.408C1373.17 113.615 1372.61 112.973 1371.92 112.973C1371.22 112.973 1370.66 113.615 1370.66 114.408C1370.66 115.201 1371.22 115.843 1371.92 115.843C1372.61 115.843 1373.17 115.201 1373.17 114.408Z" fill="#FC3150"/>
<path d="M1373.17 100.236C1373.17 99.5425 1372.61 98.9803 1371.92 98.9803C1371.22 98.9803 1370.66 99.5425 1370.66 100.236C1370.66 100.93 1371.22 101.492 1371.92 101.492C1372.61 101.492 1373.17 100.93 1373.17 100.236Z" fill="#FC3150"/>
<path d="M1373.17 86.0639C1373.17 85.4695 1372.61 84.9876 1371.92 84.9876C1371.22 84.9876 1370.66 85.4695 1370.66 86.0639C1370.66 86.6584 1371.22 87.1403 1371.92 87.1403C1372.61 87.1403 1373.17 86.6584 1373.17 86.0639Z" fill="#FC3150"/>
<path d="M1373.17 72.0714C1373.17 71.4769 1372.61 70.995 1371.92 70.995C1371.22 70.995 1370.66 71.4769 1370.66 72.0714C1370.66 72.6658 1371.22 73.1477 1371.92 73.1477C1372.61 73.1477 1373.17 72.6658 1373.17 72.0714Z" fill="#FC3150"/>
<path d="M1373.17 57.7199C1373.17 57.1254 1372.61 56.6435 1371.92 56.6435C1371.22 56.6435 1370.66 57.1254 1370.66 57.7199C1370.66 58.3143 1371.22 58.7962 1371.92 58.7962C1372.61 58.7962 1373.17 58.3143 1373.17 57.7199Z" fill="#FC3150"/>
<path d="M1373.17 43.9066C1373.17 43.2131 1372.61 42.6509 1371.92 42.6509C1371.22 42.6509 1370.66 43.2131 1370.66 43.9066C1370.66 44.6001 1371.22 45.1624 1371.92 45.1624C1372.61 45.1624 1373.17 44.6001 1373.17 43.9066Z" fill="#FC3150"/>
<path d="M1373.17 29.914C1373.17 29.2204 1372.61 28.6582 1371.92 28.6582C1371.22 28.6582 1370.66 29.2204 1370.66 29.914C1370.66 30.6075 1371.22 31.1697 1371.92 31.1697C1372.61 31.1697 1373.17 30.6075 1373.17 29.914Z" fill="#FC3150"/>
<path d="M1373.17 15.9213C1373.17 15.2278 1372.61 14.6655 1371.92 14.6655C1371.22 14.6655 1370.66 15.2278 1370.66 15.9213C1370.66 16.6148 1371.22 17.177 1371.92 17.177C1372.61 17.177 1373.17 16.6148 1373.17 15.9213Z" fill="#FC3150"/>
<path d="M1227.27 659.847C1228.07 659.847 1228.71 660.329 1228.71 660.924C1228.71 661.518 1228.07 662 1227.27 662C1226.48 662 1225.84 661.518 1225.84 660.924C1225.84 660.329 1226.48 659.847 1227.27 659.847Z" fill="#FC3150"/>
<path d="M1241.44 659.847C1242.14 659.847 1242.7 660.329 1242.7 660.924C1242.7 661.518 1242.14 662 1241.44 662C1240.75 662 1240.19 661.518 1240.19 660.924C1240.19 660.329 1240.75 659.847 1241.44 659.847Z" fill="#FC3150"/>
<path d="M1255.62 659.847C1256.21 659.847 1256.69 660.329 1256.69 660.924C1256.69 661.518 1256.21 662 1255.62 662C1255.02 662 1254.54 661.518 1254.54 660.924C1254.54 660.329 1255.02 659.847 1255.62 659.847Z" fill="#FC3150"/>
<path d="M1269.61 659.847C1270.2 659.847 1270.69 660.329 1270.69 660.924C1270.69 661.518 1270.2 662 1269.61 662C1269.01 662 1268.53 661.518 1268.53 660.924C1268.53 660.329 1269.01 659.847 1269.61 659.847Z" fill="#FC3150"/>
<path d="M1283.96 659.847C1284.56 659.847 1285.04 660.329 1285.04 660.924C1285.04 661.518 1284.56 662 1283.96 662C1283.37 662 1282.88 661.518 1282.88 660.924C1282.88 660.329 1283.37 659.847 1283.96 659.847Z" fill="#FC3150"/>
<path d="M1297.77 659.847C1298.47 659.847 1299.03 660.329 1299.03 660.924C1299.03 661.518 1298.47 662 1297.77 662C1297.08 662 1296.52 661.518 1296.52 660.924C1296.52 660.329 1297.08 659.847 1297.77 659.847Z" fill="#FC3150"/>
<path d="M1311.77 659.847C1312.46 659.847 1313.02 660.329 1313.02 660.924C1313.02 661.518 1312.46 662 1311.77 662C1311.07 662 1310.51 661.518 1310.51 660.924C1310.51 660.329 1311.07 659.847 1311.77 659.847Z" fill="#FC3150"/>
<path d="M1325.76 659.847C1326.45 659.847 1327.01 660.329 1327.01 660.924C1327.01 661.518 1326.45 662 1325.76 662C1325.07 662 1324.5 661.518 1324.5 660.924C1324.5 660.329 1325.07 659.847 1325.76 659.847Z" fill="#FC3150"/>
<path d="M1227.27 645.496C1228.07 645.496 1228.71 645.978 1228.71 646.572C1228.71 647.167 1228.07 647.648 1227.27 647.648C1226.48 647.648 1225.84 647.167 1225.84 646.572C1225.84 645.978 1226.48 645.496 1227.27 645.496Z" fill="#FC3150"/>
<path d="M1241.44 645.496C1242.14 645.496 1242.7 645.978 1242.7 646.572C1242.7 647.167 1242.14 647.648 1241.44 647.648C1240.75 647.648 1240.19 647.167 1240.19 646.572C1240.19 645.978 1240.75 645.496 1241.44 645.496Z" fill="#FC3150"/>
<path d="M1255.62 645.496C1256.21 645.496 1256.69 645.978 1256.69 646.572C1256.69 647.167 1256.21 647.648 1255.62 647.648C1255.02 647.648 1254.54 647.167 1254.54 646.572C1254.54 645.978 1255.02 645.496 1255.62 645.496Z" fill="#FC3150"/>
<path d="M1269.61 645.496C1270.2 645.496 1270.69 645.978 1270.69 646.572C1270.69 647.167 1270.2 647.648 1269.61 647.648C1269.01 647.648 1268.53 647.167 1268.53 646.572C1268.53 645.978 1269.01 645.496 1269.61 645.496Z" fill="#FC3150"/>
<path d="M1283.96 645.496C1284.56 645.496 1285.04 645.978 1285.04 646.572C1285.04 647.167 1284.56 647.648 1283.96 647.648C1283.37 647.648 1282.88 647.167 1282.88 646.572C1282.88 645.978 1283.37 645.496 1283.96 645.496Z" fill="#FC3150"/>
<path d="M1297.77 645.496C1298.47 645.496 1299.03 645.978 1299.03 646.572C1299.03 647.167 1298.47 647.648 1297.77 647.648C1297.08 647.648 1296.52 647.167 1296.52 646.572C1296.52 645.978 1297.08 645.496 1297.77 645.496Z" fill="#FC3150"/>
<path d="M1311.77 645.496C1312.46 645.496 1313.02 645.978 1313.02 646.572C1313.02 647.167 1312.46 647.648 1311.77 647.648C1311.07 647.648 1310.51 647.167 1310.51 646.572C1310.51 645.978 1311.07 645.496 1311.77 645.496Z" fill="#FC3150"/>
<path d="M1325.76 645.496C1326.45 645.496 1327.01 645.978 1327.01 646.572C1327.01 647.167 1326.45 647.648 1325.76 647.648C1325.07 647.648 1324.5 647.167 1324.5 646.572C1324.5 645.978 1325.07 645.496 1325.76 645.496Z" fill="#FC3150"/>
<path d="M1227.27 631.503C1228.07 631.503 1228.71 631.985 1228.71 632.58C1228.71 633.174 1228.07 633.656 1227.27 633.656C1226.48 633.656 1225.84 633.174 1225.84 632.58C1225.84 631.985 1226.48 631.503 1227.27 631.503Z" fill="#FC3150"/>
<path d="M1241.44 631.503C1242.14 631.503 1242.7 631.985 1242.7 632.58C1242.7 633.174 1242.14 633.656 1241.44 633.656C1240.75 633.656 1240.19 633.174 1240.19 632.58C1240.19 631.985 1240.75 631.503 1241.44 631.503Z" fill="#FC3150"/>
<path d="M1255.62 631.503C1256.21 631.503 1256.69 631.985 1256.69 632.58C1256.69 633.174 1256.21 633.656 1255.62 633.656C1255.02 633.656 1254.54 633.174 1254.54 632.58C1254.54 631.985 1255.02 631.503 1255.62 631.503Z" fill="#FC3150"/>
<path d="M1269.61 631.503C1270.2 631.503 1270.69 631.985 1270.69 632.58C1270.69 633.174 1270.2 633.656 1269.61 633.656C1269.01 633.656 1268.53 633.174 1268.53 632.58C1268.53 631.985 1269.01 631.503 1269.61 631.503Z" fill="#FC3150"/>
<path d="M1283.96 631.503C1284.56 631.503 1285.04 631.985 1285.04 632.58C1285.04 633.174 1284.56 633.656 1283.96 633.656C1283.37 633.656 1282.88 633.174 1282.88 632.58C1282.88 631.985 1283.37 631.503 1283.96 631.503Z" fill="#FC3150"/>
<path d="M1297.77 631.503C1298.47 631.503 1299.03 631.985 1299.03 632.58C1299.03 633.174 1298.47 633.656 1297.77 633.656C1297.08 633.656 1296.52 633.174 1296.52 632.58C1296.52 631.985 1297.08 631.503 1297.77 631.503Z" fill="#FC3150"/>
<path d="M1311.77 631.503C1312.46 631.503 1313.02 631.985 1313.02 632.58C1313.02 633.174 1312.46 633.656 1311.77 633.656C1311.07 633.656 1310.51 633.174 1310.51 632.58C1310.51 631.985 1311.07 631.503 1311.77 631.503Z" fill="#FC3150"/>
<path d="M1325.76 631.503C1326.45 631.503 1327.01 631.985 1327.01 632.579C1327.01 633.174 1326.45 633.656 1325.76 633.656C1325.07 633.656 1324.5 633.174 1324.5 632.579C1324.5 631.985 1325.07 631.503 1325.76 631.503Z" fill="#FC3150"/>
<path d="M1227.27 617.152C1228.07 617.152 1228.71 617.714 1228.71 618.408C1228.71 619.101 1228.07 619.663 1227.27 619.663C1226.48 619.663 1225.84 619.101 1225.84 618.408C1225.84 617.714 1226.48 617.152 1227.27 617.152Z" fill="#FC3150"/>
<path d="M1241.44 617.152C1242.14 617.152 1242.7 617.714 1242.7 618.408C1242.7 619.101 1242.14 619.663 1241.44 619.663C1240.75 619.663 1240.19 619.101 1240.19 618.408C1240.19 617.714 1240.75 617.152 1241.44 617.152Z" fill="#FC3150"/>
<path d="M1255.62 617.152C1256.21 617.152 1256.69 617.714 1256.69 618.408C1256.69 619.101 1256.21 619.663 1255.62 619.663C1255.02 619.663 1254.54 619.101 1254.54 618.408C1254.54 617.714 1255.02 617.152 1255.62 617.152Z" fill="#FC3150"/>
<path d="M1269.61 617.152C1270.2 617.152 1270.69 617.714 1270.69 618.408C1270.69 619.101 1270.2 619.663 1269.61 619.663C1269.01 619.663 1268.53 619.101 1268.53 618.408C1268.53 617.714 1269.01 617.152 1269.61 617.152Z" fill="#FC3150"/>
<path d="M1283.96 617.152C1284.56 617.152 1285.04 617.714 1285.04 618.408C1285.04 619.101 1284.56 619.663 1283.96 619.663C1283.37 619.663 1282.88 619.101 1282.88 618.408C1282.88 617.714 1283.37 617.152 1283.96 617.152Z" fill="#FC3150"/>
<path d="M1297.77 617.152C1298.47 617.152 1299.03 617.714 1299.03 618.408C1299.03 619.101 1298.47 619.663 1297.77 619.663C1297.08 619.663 1296.52 619.101 1296.52 618.408C1296.52 617.714 1297.08 617.152 1297.77 617.152Z" fill="#FC3150"/>
<path d="M1311.77 617.152C1312.46 617.152 1313.02 617.714 1313.02 618.408C1313.02 619.101 1312.46 619.663 1311.77 619.663C1311.07 619.663 1310.51 619.101 1310.51 618.408C1310.51 617.714 1311.07 617.152 1311.77 617.152Z" fill="#FC3150"/>
<path d="M1325.76 617.152C1326.45 617.152 1327.01 617.714 1327.01 618.408C1327.01 619.101 1326.45 619.663 1325.76 619.663C1325.07 619.663 1324.5 619.101 1324.5 618.408C1324.5 617.714 1325.07 617.152 1325.76 617.152Z" fill="#FC3150"/>
<path d="M1385.83 114.408C1385.83 113.615 1385.35 112.973 1384.75 112.973C1384.16 112.973 1383.68 113.615 1383.68 114.408C1383.68 115.201 1384.16 115.843 1384.75 115.843C1385.35 115.843 1385.83 115.201 1385.83 114.408Z" fill="#FC3150"/>
<path d="M1385.83 100.236C1385.83 99.5425 1385.35 98.9803 1384.75 98.9803C1384.16 98.9803 1383.68 99.5425 1383.68 100.236C1383.68 100.93 1384.16 101.492 1384.75 101.492C1385.35 101.492 1385.83 100.93 1385.83 100.236Z" fill="#FC3150"/>
<path d="M1385.83 86.064C1385.83 85.4695 1385.35 84.9876 1384.75 84.9876C1384.16 84.9876 1383.68 85.4695 1383.68 86.064C1383.68 86.6585 1384.16 87.1404 1384.75 87.1404C1385.35 87.1404 1385.83 86.6585 1385.83 86.064Z" fill="#FC3150"/>
<path d="M1385.83 72.0714C1385.83 71.4769 1385.35 70.995 1384.75 70.995C1384.16 70.995 1383.68 71.4769 1383.68 72.0714C1383.68 72.6658 1384.16 73.1477 1384.75 73.1477C1385.35 73.1477 1385.83 72.6658 1385.83 72.0714Z" fill="#FC3150"/>
<path d="M1385.83 57.7199C1385.83 57.1255 1385.35 56.6435 1384.75 56.6435C1384.16 56.6435 1383.68 57.1255 1383.68 57.7199C1383.68 58.3144 1384.16 58.7963 1384.75 58.7963C1385.35 58.7963 1385.83 58.3144 1385.83 57.7199Z" fill="#FC3150"/>
<path d="M1385.83 43.9066C1385.83 43.2131 1385.35 42.6509 1384.75 42.6509C1384.16 42.6509 1383.68 43.2131 1383.68 43.9066C1383.68 44.6002 1384.16 45.1624 1384.75 45.1624C1385.35 45.1624 1385.83 44.6002 1385.83 43.9066Z" fill="#FC3150"/>
<path d="M1385.83 29.914C1385.83 29.2204 1385.35 28.6582 1384.75 28.6582C1384.16 28.6582 1383.68 29.2204 1383.68 29.914C1383.68 30.6075 1384.16 31.1697 1384.75 31.1697C1385.35 31.1697 1385.83 30.6075 1385.83 29.914Z" fill="#FC3150"/>
<path d="M1385.83 15.9214C1385.83 15.2278 1385.35 14.6656 1384.75 14.6656C1384.16 14.6656 1383.68 15.2278 1383.68 15.9214C1383.68 16.6149 1384.16 17.1771 1384.75 17.1771C1385.35 17.1771 1385.83 16.6149 1385.83 15.9214Z" fill="#FC3150"/>
<path d="M1400.18 114.408C1400.18 113.615 1399.7 112.973 1399.11 112.973C1398.51 112.973 1398.03 113.615 1398.03 114.408C1398.03 115.201 1398.51 115.843 1399.11 115.843C1399.7 115.843 1400.18 115.201 1400.18 114.408Z" fill="#FC3150"/>
<path d="M1400.18 100.236C1400.18 99.5425 1399.7 98.9803 1399.11 98.9803C1398.51 98.9803 1398.03 99.5425 1398.03 100.236C1398.03 100.93 1398.51 101.492 1399.11 101.492C1399.7 101.492 1400.18 100.93 1400.18 100.236Z" fill="#FC3150"/>
<path d="M1400.18 86.064C1400.18 85.4695 1399.7 84.9876 1399.11 84.9876C1398.51 84.9876 1398.03 85.4695 1398.03 86.064C1398.03 86.6585 1398.51 87.1404 1399.11 87.1404C1399.7 87.1404 1400.18 86.6585 1400.18 86.064Z" fill="#FC3150"/>
<path d="M1400.18 72.0713C1400.18 71.4769 1399.7 70.995 1399.11 70.995C1398.51 70.995 1398.03 71.4769 1398.03 72.0713C1398.03 72.6658 1398.51 73.1477 1399.11 73.1477C1399.7 73.1477 1400.18 72.6658 1400.18 72.0713Z" fill="#FC3150"/>
<path d="M1400.18 57.7199C1400.18 57.1255 1399.7 56.6435 1399.11 56.6435C1398.51 56.6435 1398.03 57.1255 1398.03 57.7199C1398.03 58.3144 1398.51 58.7963 1399.11 58.7963C1399.7 58.7963 1400.18 58.3144 1400.18 57.7199Z" fill="#FC3150"/>
<path d="M1400.18 43.9066C1400.18 43.2131 1399.7 42.6509 1399.11 42.6509C1398.51 42.6509 1398.03 43.2131 1398.03 43.9066C1398.03 44.6002 1398.51 45.1624 1399.11 45.1624C1399.7 45.1624 1400.18 44.6002 1400.18 43.9066Z" fill="#FC3150"/>
<path d="M1400.18 29.914C1400.18 29.2204 1399.7 28.6582 1399.11 28.6582C1398.51 28.6582 1398.03 29.2204 1398.03 29.914C1398.03 30.6075 1398.51 31.1697 1399.11 31.1697C1399.7 31.1697 1400.18 30.6075 1400.18 29.914Z" fill="#FC3150"/>
<path d="M1400.18 15.9214C1400.18 15.2278 1399.7 14.6656 1399.11 14.6656C1398.51 14.6656 1398.03 15.2278 1398.03 15.9214C1398.03 16.6149 1398.51 17.1771 1399.11 17.1771C1399.7 17.1771 1400.18 16.6149 1400.18 15.9214Z" fill="#FC3150"/>
<path d="M1414.17 114.408C1414.17 113.615 1413.69 112.973 1413.1 112.973C1412.5 112.973 1412.02 113.615 1412.02 114.408C1412.02 115.201 1412.5 115.843 1413.1 115.843C1413.69 115.843 1414.17 115.201 1414.17 114.408Z" fill="#FC3150"/>
<path d="M1414.17 100.236C1414.17 99.5425 1413.69 98.9803 1413.1 98.9803C1412.5 98.9803 1412.02 99.5425 1412.02 100.236C1412.02 100.93 1412.5 101.492 1413.1 101.492C1413.69 101.492 1414.17 100.93 1414.17 100.236Z" fill="#FC3150"/>
<path d="M1414.17 86.064C1414.17 85.4695 1413.69 84.9876 1413.1 84.9876C1412.5 84.9876 1412.02 85.4695 1412.02 86.064C1412.02 86.6585 1412.5 87.1404 1413.1 87.1404C1413.69 87.1404 1414.17 86.6585 1414.17 86.064Z" fill="#FC3150"/>
<path d="M1414.17 72.0713C1414.17 71.4769 1413.69 70.995 1413.1 70.995C1412.5 70.995 1412.02 71.4769 1412.02 72.0713C1412.02 72.6658 1412.5 73.1477 1413.1 73.1477C1413.69 73.1477 1414.17 72.6658 1414.17 72.0713Z" fill="#FC3150"/>
<path d="M1414.17 57.7199C1414.17 57.1255 1413.69 56.6435 1413.1 56.6435C1412.5 56.6435 1412.02 57.1255 1412.02 57.7199C1412.02 58.3144 1412.5 58.7963 1413.1 58.7963C1413.69 58.7963 1414.17 58.3144 1414.17 57.7199Z" fill="#FC3150"/>
<path d="M1414.17 43.9066C1414.17 43.2131 1413.69 42.6509 1413.1 42.6509C1412.5 42.6509 1412.02 43.2131 1412.02 43.9066C1412.02 44.6002 1412.5 45.1624 1413.1 45.1624C1413.69 45.1624 1414.17 44.6002 1414.17 43.9066Z" fill="#FC3150"/>
<path d="M1414.17 29.914C1414.17 29.2204 1413.69 28.6582 1413.1 28.6582C1412.5 28.6582 1412.02 29.2204 1412.02 29.914C1412.02 30.6075 1412.5 31.1697 1413.1 31.1697C1413.69 31.1697 1414.17 30.6075 1414.17 29.914Z" fill="#FC3150"/>
<path d="M1414.17 15.9213C1414.17 15.2278 1413.69 14.6656 1413.1 14.6656C1412.5 14.6656 1412.02 15.2278 1412.02 15.9213C1412.02 16.6149 1412.5 17.1771 1413.1 17.1771C1413.69 17.1771 1414.17 16.6149 1414.17 15.9213Z" fill="#FC3150"/>
<path d="M1428.53 114.408C1428.53 113.615 1427.96 112.973 1427.27 112.973C1426.58 112.973 1426.01 113.615 1426.01 114.408C1426.01 115.201 1426.58 115.843 1427.27 115.843C1427.96 115.843 1428.53 115.201 1428.53 114.408Z" fill="#FC3150"/>
<path d="M1428.53 100.236C1428.53 99.5425 1427.96 98.9803 1427.27 98.9803C1426.58 98.9803 1426.01 99.5425 1426.01 100.236C1426.01 100.93 1426.58 101.492 1427.27 101.492C1427.96 101.492 1428.53 100.93 1428.53 100.236Z" fill="#FC3150"/>
<path d="M1428.53 86.064C1428.53 85.4695 1427.96 84.9876 1427.27 84.9876C1426.58 84.9876 1426.01 85.4695 1426.01 86.064C1426.01 86.6585 1426.58 87.1404 1427.27 87.1404C1427.96 87.1404 1428.53 86.6585 1428.53 86.064Z" fill="#FC3150"/>
<path d="M1428.53 72.0714C1428.53 71.4769 1427.96 70.995 1427.27 70.995C1426.58 70.995 1426.01 71.4769 1426.01 72.0714C1426.01 72.6658 1426.58 73.1477 1427.27 73.1477C1427.96 73.1477 1428.53 72.6658 1428.53 72.0714Z" fill="#FC3150"/>
<path d="M1428.53 57.7199C1428.53 57.1255 1427.96 56.6435 1427.27 56.6435C1426.58 56.6435 1426.01 57.1255 1426.01 57.7199C1426.01 58.3144 1426.58 58.7963 1427.27 58.7963C1427.96 58.7963 1428.53 58.3144 1428.53 57.7199Z" fill="#FC3150"/>
<path d="M1428.53 43.9066C1428.53 43.2131 1427.96 42.6509 1427.27 42.6509C1426.58 42.6509 1426.01 43.2131 1426.01 43.9066C1426.01 44.6002 1426.58 45.1624 1427.27 45.1624C1427.96 45.1624 1428.53 44.6002 1428.53 43.9066Z" fill="#FC3150"/>
<path d="M1428.53 29.914C1428.53 29.2204 1427.96 28.6582 1427.27 28.6582C1426.58 28.6582 1426.01 29.2204 1426.01 29.914C1426.01 30.6075 1426.58 31.1697 1427.27 31.1697C1427.96 31.1697 1428.53 30.6075 1428.53 29.914Z" fill="#FC3150"/>
<path d="M1428.53 15.9213C1428.53 15.2278 1427.96 14.6656 1427.27 14.6656C1426.58 14.6656 1426.01 15.2278 1426.01 15.9213C1426.01 16.6149 1426.58 17.1771 1427.27 17.1771C1427.96 17.1771 1428.53 16.6149 1428.53 15.9213Z" fill="#FC3150"/>
<path d="M1227.27 604.496C1228.07 604.496 1228.71 604.978 1228.71 605.572C1228.71 606.167 1228.07 606.648 1227.27 606.648C1226.48 606.648 1225.84 606.167 1225.84 605.572C1225.84 604.978 1226.48 604.496 1227.27 604.496Z" fill="#FC3150"/>
<path d="M1241.44 604.496C1242.14 604.496 1242.7 604.978 1242.7 605.572C1242.7 606.167 1242.14 606.648 1241.44 606.648C1240.75 606.648 1240.19 606.167 1240.19 605.572C1240.19 604.978 1240.75 604.496 1241.44 604.496Z" fill="#FC3150"/>
<path d="M1255.62 604.496C1256.21 604.496 1256.69 604.978 1256.69 605.572C1256.69 606.167 1256.21 606.648 1255.62 606.648C1255.02 606.648 1254.54 606.167 1254.54 605.572C1254.54 604.978 1255.02 604.496 1255.62 604.496Z" fill="#FC3150"/>
<path d="M1269.61 604.496C1270.2 604.496 1270.69 604.978 1270.69 605.572C1270.69 606.167 1270.2 606.648 1269.61 606.648C1269.01 606.648 1268.53 606.167 1268.53 605.572C1268.53 604.978 1269.01 604.496 1269.61 604.496Z" fill="#FC3150"/>
<path d="M1283.96 604.496C1284.56 604.496 1285.04 604.978 1285.04 605.572C1285.04 606.167 1284.56 606.648 1283.96 606.648C1283.37 606.648 1282.88 606.167 1282.88 605.572C1282.88 604.978 1283.37 604.496 1283.96 604.496Z" fill="#FC3150"/>
<path d="M1297.77 604.496C1298.47 604.496 1299.03 604.978 1299.03 605.572C1299.03 606.167 1298.47 606.648 1297.77 606.648C1297.08 606.648 1296.52 606.167 1296.52 605.572C1296.52 604.978 1297.08 604.496 1297.77 604.496Z" fill="#FC3150"/>
<path d="M1311.77 604.496C1312.46 604.496 1313.02 604.978 1313.02 605.572C1313.02 606.167 1312.46 606.648 1311.77 606.648C1311.07 606.648 1310.51 606.167 1310.51 605.572C1310.51 604.978 1311.07 604.496 1311.77 604.496Z" fill="#FC3150"/>
<path d="M1325.76 604.496C1326.45 604.496 1327.01 604.978 1327.01 605.572C1327.01 606.167 1326.45 606.648 1325.76 606.648C1325.07 606.648 1324.5 606.167 1324.5 605.572C1324.5 604.978 1325.07 604.496 1325.76 604.496Z" fill="#FC3150"/>
<path d="M1227.27 590.144C1228.07 590.144 1228.71 590.626 1228.71 591.221C1228.71 591.815 1228.07 592.297 1227.27 592.297C1226.48 592.297 1225.84 591.815 1225.84 591.221C1225.84 590.626 1226.48 590.144 1227.27 590.144Z" fill="#FC3150"/>
<path d="M1241.44 590.144C1242.14 590.144 1242.7 590.626 1242.7 591.221C1242.7 591.815 1242.14 592.297 1241.44 592.297C1240.75 592.297 1240.19 591.815 1240.19 591.221C1240.19 590.626 1240.75 590.144 1241.44 590.144Z" fill="#FC3150"/>
<path d="M1255.62 590.144C1256.21 590.144 1256.69 590.626 1256.69 591.221C1256.69 591.815 1256.21 592.297 1255.62 592.297C1255.02 592.297 1254.54 591.815 1254.54 591.221C1254.54 590.626 1255.02 590.144 1255.62 590.144Z" fill="#FC3150"/>
<path d="M1269.61 590.144C1270.2 590.144 1270.69 590.626 1270.69 591.221C1270.69 591.815 1270.2 592.297 1269.61 592.297C1269.01 592.297 1268.53 591.815 1268.53 591.221C1268.53 590.626 1269.01 590.144 1269.61 590.144Z" fill="#FC3150"/>
<path d="M1283.96 590.144C1284.56 590.144 1285.04 590.626 1285.04 591.221C1285.04 591.815 1284.56 592.297 1283.96 592.297C1283.37 592.297 1282.88 591.815 1282.88 591.221C1282.88 590.626 1283.37 590.144 1283.96 590.144Z" fill="#FC3150"/>
<path d="M1297.77 590.144C1298.47 590.144 1299.03 590.626 1299.03 591.221C1299.03 591.815 1298.47 592.297 1297.77 592.297C1297.08 592.297 1296.52 591.815 1296.52 591.221C1296.52 590.626 1297.08 590.144 1297.77 590.144Z" fill="#FC3150"/>
<path d="M1311.77 590.144C1312.46 590.144 1313.02 590.626 1313.02 591.221C1313.02 591.815 1312.46 592.297 1311.77 592.297C1311.07 592.297 1310.51 591.815 1310.51 591.221C1310.51 590.626 1311.07 590.144 1311.77 590.144Z" fill="#FC3150"/>
<path d="M1325.76 590.144C1326.45 590.144 1327.01 590.626 1327.01 591.221C1327.01 591.815 1326.45 592.297 1325.76 592.297C1325.07 592.297 1324.5 591.815 1324.5 591.221C1324.5 590.626 1325.07 590.144 1325.76 590.144Z" fill="#FC3150"/>
<path d="M1227.27 576.152C1228.07 576.152 1228.71 576.634 1228.71 577.228C1228.71 577.822 1228.07 578.304 1227.27 578.304C1226.48 578.304 1225.84 577.822 1225.84 577.228C1225.84 576.634 1226.48 576.152 1227.27 576.152Z" fill="#FC3150"/>
<path d="M1241.44 576.152C1242.14 576.152 1242.7 576.634 1242.7 577.228C1242.7 577.822 1242.14 578.304 1241.44 578.304C1240.75 578.304 1240.19 577.822 1240.19 577.228C1240.19 576.634 1240.75 576.152 1241.44 576.152Z" fill="#FC3150"/>
<path d="M1255.62 576.152C1256.21 576.152 1256.69 576.634 1256.69 577.228C1256.69 577.822 1256.21 578.304 1255.62 578.304C1255.02 578.304 1254.54 577.822 1254.54 577.228C1254.54 576.634 1255.02 576.152 1255.62 576.152Z" fill="#FC3150"/>
<path d="M1269.61 576.152C1270.2 576.152 1270.69 576.634 1270.69 577.228C1270.69 577.822 1270.2 578.304 1269.61 578.304C1269.01 578.304 1268.53 577.822 1268.53 577.228C1268.53 576.634 1269.01 576.152 1269.61 576.152Z" fill="#FC3150"/>
<path d="M1283.96 576.152C1284.56 576.152 1285.04 576.634 1285.04 577.228C1285.04 577.822 1284.56 578.304 1283.96 578.304C1283.37 578.304 1282.88 577.822 1282.88 577.228C1282.88 576.634 1283.37 576.152 1283.96 576.152Z" fill="#FC3150"/>
<path d="M1297.77 576.152C1298.47 576.152 1299.03 576.634 1299.03 577.228C1299.03 577.822 1298.47 578.304 1297.77 578.304C1297.08 578.304 1296.52 577.822 1296.52 577.228C1296.52 576.634 1297.08 576.152 1297.77 576.152Z" fill="#FC3150"/>
<path d="M1311.77 576.152C1312.46 576.152 1313.02 576.633 1313.02 577.228C1313.02 577.822 1312.46 578.304 1311.77 578.304C1311.07 578.304 1310.51 577.822 1310.51 577.228C1310.51 576.633 1311.07 576.152 1311.77 576.152Z" fill="#FC3150"/>
<path d="M1325.76 576.152C1326.45 576.152 1327.01 576.633 1327.01 577.228C1327.01 577.822 1326.45 578.304 1325.76 578.304C1325.07 578.304 1324.5 577.822 1324.5 577.228C1324.5 576.633 1325.07 576.152 1325.76 576.152Z" fill="#FC3150"/>
<path d="M1227.27 561.8C1228.07 561.8 1228.71 562.362 1228.71 563.056C1228.71 563.749 1228.07 564.312 1227.27 564.312C1226.48 564.312 1225.84 563.749 1225.84 563.056C1225.84 562.362 1226.48 561.8 1227.27 561.8Z" fill="#FC3150"/>
<path d="M1241.44 561.8C1242.14 561.8 1242.7 562.362 1242.7 563.056C1242.7 563.749 1242.14 564.312 1241.44 564.312C1240.75 564.312 1240.19 563.749 1240.19 563.056C1240.19 562.362 1240.75 561.8 1241.44 561.8Z" fill="#FC3150"/>
<path d="M1255.62 561.8C1256.21 561.8 1256.69 562.362 1256.69 563.056C1256.69 563.749 1256.21 564.312 1255.62 564.312C1255.02 564.312 1254.54 563.749 1254.54 563.056C1254.54 562.362 1255.02 561.8 1255.62 561.8Z" fill="#FC3150"/>
<path d="M1269.61 561.8C1270.2 561.8 1270.69 562.362 1270.69 563.056C1270.69 563.749 1270.2 564.312 1269.61 564.312C1269.01 564.312 1268.53 563.749 1268.53 563.056C1268.53 562.362 1269.01 561.8 1269.61 561.8Z" fill="#FC3150"/>
<path d="M1283.96 561.8C1284.56 561.8 1285.04 562.362 1285.04 563.056C1285.04 563.749 1284.56 564.312 1283.96 564.312C1283.37 564.312 1282.88 563.749 1282.88 563.056C1282.88 562.362 1283.37 561.8 1283.96 561.8Z" fill="#FC3150"/>
<path d="M1297.77 561.8C1298.47 561.8 1299.03 562.362 1299.03 563.056C1299.03 563.749 1298.47 564.312 1297.77 564.312C1297.08 564.312 1296.52 563.749 1296.52 563.056C1296.52 562.362 1297.08 561.8 1297.77 561.8Z" fill="#FC3150"/>
<path d="M1311.77 561.8C1312.46 561.8 1313.02 562.362 1313.02 563.056C1313.02 563.749 1312.46 564.312 1311.77 564.312C1311.07 564.312 1310.51 563.749 1310.51 563.056C1310.51 562.362 1311.07 561.8 1311.77 561.8Z" fill="#FC3150"/>
<path d="M1325.76 561.8C1326.45 561.8 1327.01 562.362 1327.01 563.056C1327.01 563.749 1326.45 564.312 1325.76 564.312C1325.07 564.312 1324.5 563.749 1324.5 563.056C1324.5 562.362 1325.07 561.8 1325.76 561.8Z" fill="#FC3150"/>
<path d="M98.3602 101.647C98.3602 100.855 98.8421 100.212 99.4366 100.212C100.031 100.212 100.513 100.855 100.513 101.647C100.513 102.44 100.031 103.083 99.4366 103.083C98.8421 103.083 98.3602 102.44 98.3602 101.647Z" fill="#FC3150"/>
<path d="M98.3602 87.4754C98.3602 86.7819 98.8421 86.2197 99.4366 86.2197C100.031 86.2197 100.513 86.7819 100.513 87.4754C100.513 88.169 100.031 88.7312 99.4366 88.7312C98.8421 88.7312 98.3602 88.169 98.3602 87.4754Z" fill="#FC3150"/>
<path d="M98.3602 73.3034C98.3602 72.7089 98.8421 72.227 99.4366 72.227C100.031 72.227 100.513 72.7089 100.513 73.3034C100.513 73.8978 100.031 74.3797 99.4366 74.3797C98.8421 74.3797 98.3602 73.8978 98.3602 73.3034Z" fill="#FC3150"/>
<path d="M98.3602 59.3107C98.3602 58.7163 98.8421 58.2344 99.4366 58.2344C100.031 58.2344 100.513 58.7163 100.513 59.3107C100.513 59.9052 100.031 60.3871 99.4366 60.3871C98.8421 60.3871 98.3602 59.9052 98.3602 59.3107Z" fill="#FC3150"/>
<path d="M98.3602 44.9593C98.3602 44.3649 98.8421 43.883 99.4366 43.883C100.031 43.883 100.513 44.3649 100.513 44.9593C100.513 45.5538 100.031 46.0357 99.4366 46.0357C98.8421 46.0357 98.3602 45.5538 98.3602 44.9593Z" fill="#FC3150"/>
<path d="M98.3602 31.1461C98.3602 30.4525 98.8421 29.8903 99.4366 29.8903C100.031 29.8903 100.513 30.4525 100.513 31.1461C100.513 31.8396 100.031 32.4018 99.4366 32.4018C98.8421 32.4018 98.3602 31.8396 98.3602 31.1461Z" fill="#FC3150"/>
<path d="M98.3602 17.1534C98.3602 16.4598 98.8421 15.8976 99.4366 15.8976C100.031 15.8976 100.513 16.4598 100.513 17.1534C100.513 17.8469 100.031 18.4091 99.4366 18.4091C98.8421 18.4091 98.3602 17.8469 98.3602 17.1534Z" fill="#FC3150"/>
<path d="M98.3602 3.16073C98.3602 2.4672 98.8421 1.90497 99.4366 1.90497C100.031 1.90497 100.513 2.4672 100.513 3.16073C100.513 3.85426 100.031 4.41647 99.4366 4.41647C98.8421 4.41647 98.3602 3.85426 98.3602 3.16073Z" fill="#FC3150"/>
<path d="M84.0088 101.647C84.0088 100.855 84.4907 100.212 85.0851 100.212C85.6796 100.212 86.1615 100.855 86.1615 101.647C86.1615 102.44 85.6796 103.083 85.0851 103.083C84.4907 103.083 84.0088 102.44 84.0088 101.647Z" fill="#FC3150"/>
<path d="M84.0088 87.4754C84.0088 86.7819 84.4907 86.2197 85.0851 86.2197C85.6796 86.2197 86.1615 86.7819 86.1615 87.4754C86.1615 88.169 85.6796 88.7312 85.0851 88.7312C84.4907 88.7312 84.0088 88.169 84.0088 87.4754Z" fill="#FC3150"/>
<path d="M84.0088 73.3034C84.0088 72.7089 84.4907 72.227 85.0851 72.227C85.6796 72.227 86.1615 72.7089 86.1615 73.3034C86.1615 73.8978 85.6796 74.3797 85.0851 74.3797C84.4907 74.3797 84.0088 73.8978 84.0088 73.3034Z" fill="#FC3150"/>
<path d="M84.0088 59.3107C84.0088 58.7162 84.4907 58.2343 85.0851 58.2343C85.6796 58.2343 86.1615 58.7162 86.1615 59.3107C86.1615 59.9052 85.6796 60.3871 85.0851 60.3871C84.4907 60.3871 84.0088 59.9052 84.0088 59.3107Z" fill="#FC3150"/>
<path d="M84.0088 44.9593C84.0088 44.3649 84.4907 43.883 85.0851 43.883C85.6796 43.883 86.1615 44.3649 86.1615 44.9593C86.1615 45.5538 85.6796 46.0357 85.0851 46.0357C84.4907 46.0357 84.0088 45.5538 84.0088 44.9593Z" fill="#FC3150"/>
<path d="M84.0088 31.1461C84.0088 30.4525 84.4907 29.8903 85.0851 29.8903C85.6796 29.8903 86.1615 30.4525 86.1615 31.1461C86.1615 31.8396 85.6796 32.4018 85.0851 32.4018C84.4907 32.4018 84.0088 31.8396 84.0088 31.1461Z" fill="#FC3150"/>
<path d="M84.0088 17.1534C84.0088 16.4598 84.4907 15.8976 85.0851 15.8976C85.6796 15.8976 86.1615 16.4598 86.1615 17.1534C86.1615 17.8469 85.6796 18.4091 85.0851 18.4091C84.4907 18.4091 84.0088 17.8469 84.0088 17.1534Z" fill="#FC3150"/>
<path d="M84.0088 3.16073C84.0088 2.4672 84.4907 1.90497 85.0851 1.90497C85.6796 1.90497 86.1615 2.4672 86.1615 3.16073C86.1615 3.85426 85.6796 4.41647 85.0851 4.41647C84.4907 4.41647 84.0088 3.85426 84.0088 3.16073Z" fill="#FC3150"/>
<path d="M70.0162 101.647C70.0162 100.855 70.4981 100.212 71.0926 100.212C71.687 100.212 72.1689 100.855 72.1689 101.647C72.1689 102.44 71.687 103.083 71.0926 103.083C70.4981 103.083 70.0162 102.44 70.0162 101.647Z" fill="#FC3150"/>
<path d="M70.0162 87.4754C70.0162 86.7819 70.4981 86.2197 71.0926 86.2197C71.687 86.2197 72.1689 86.7819 72.1689 87.4754C72.1689 88.169 71.687 88.7312 71.0926 88.7312C70.4981 88.7312 70.0162 88.169 70.0162 87.4754Z" fill="#FC3150"/>
<path d="M70.0162 73.3034C70.0162 72.7089 70.4981 72.227 71.0926 72.227C71.687 72.227 72.1689 72.7089 72.1689 73.3034C72.1689 73.8978 71.687 74.3797 71.0926 74.3797C70.4981 74.3797 70.0162 73.8978 70.0162 73.3034Z" fill="#FC3150"/>
<path d="M70.0162 59.3107C70.0162 58.7162 70.4981 58.2343 71.0926 58.2343C71.687 58.2343 72.1689 58.7162 72.1689 59.3107C72.1689 59.9052 71.687 60.3871 71.0926 60.3871C70.4981 60.3871 70.0162 59.9052 70.0162 59.3107Z" fill="#FC3150"/>
<path d="M70.0162 44.9593C70.0162 44.3649 70.4981 43.883 71.0926 43.883C71.687 43.883 72.1689 44.3649 72.1689 44.9593C72.1689 45.5538 71.687 46.0357 71.0926 46.0357C70.4981 46.0357 70.0162 45.5538 70.0162 44.9593Z" fill="#FC3150"/>
<path d="M70.0162 31.1461C70.0162 30.4525 70.4981 29.8903 71.0926 29.8903C71.687 29.8903 72.1689 30.4525 72.1689 31.1461C72.1689 31.8396 71.687 32.4018 71.0926 32.4018C70.4981 32.4018 70.0162 31.8396 70.0162 31.1461Z" fill="#FC3150"/>
<path d="M70.0162 17.1534C70.0162 16.4598 70.4981 15.8976 71.0926 15.8976C71.687 15.8976 72.1689 16.4598 72.1689 17.1534C72.1689 17.8469 71.687 18.4091 71.0926 18.4091C70.4981 18.4091 70.0162 17.8469 70.0162 17.1534Z" fill="#FC3150"/>
<path d="M70.0162 3.16073C70.0162 2.4672 70.4981 1.90497 71.0926 1.90497C71.687 1.90497 72.1689 2.4672 72.1689 3.16073C72.1689 3.85426 71.687 4.41647 71.0926 4.41647C70.4981 4.41647 70.0162 3.85426 70.0162 3.16073Z" fill="#FC3150"/>
<path d="M55.6648 101.647C55.6648 100.855 56.227 100.212 56.9205 100.212C57.614 100.212 58.1763 100.855 58.1763 101.647C58.1763 102.44 57.614 103.083 56.9205 103.083C56.227 103.083 55.6648 102.44 55.6648 101.647Z" fill="#FC3150"/>
<path d="M55.6648 87.4754C55.6648 86.7819 56.227 86.2197 56.9205 86.2197C57.614 86.2197 58.1763 86.7819 58.1763 87.4754C58.1763 88.169 57.614 88.7312 56.9205 88.7312C56.227 88.7312 55.6648 88.169 55.6648 87.4754Z" fill="#FC3150"/>
<path d="M55.6648 73.3034C55.6648 72.7089 56.227 72.227 56.9205 72.227C57.614 72.227 58.1763 72.7089 58.1763 73.3034C58.1763 73.8978 57.614 74.3797 56.9205 74.3797C56.227 74.3797 55.6648 73.8978 55.6648 73.3034Z" fill="#FC3150"/>
<path d="M55.6648 59.3107C55.6648 58.7162 56.227 58.2343 56.9205 58.2343C57.614 58.2343 58.1763 58.7162 58.1763 59.3107C58.1763 59.9052 57.614 60.3871 56.9205 60.3871C56.227 60.3871 55.6648 59.9052 55.6648 59.3107Z" fill="#FC3150"/>
<path d="M55.6648 44.9593C55.6648 44.3648 56.227 43.8829 56.9205 43.8829C57.614 43.8829 58.1763 44.3648 58.1763 44.9593C58.1763 45.5538 57.614 46.0356 56.9205 46.0356C56.227 46.0356 55.6648 45.5538 55.6648 44.9593Z" fill="#FC3150"/>
<path d="M55.6648 31.1461C55.6648 30.4525 56.227 29.8903 56.9205 29.8903C57.614 29.8903 58.1763 30.4525 58.1763 31.1461C58.1763 31.8396 57.614 32.4018 56.9205 32.4018C56.227 32.4018 55.6648 31.8396 55.6648 31.1461Z" fill="#FC3150"/>
<path d="M55.6648 17.1534C55.6648 16.4598 56.227 15.8976 56.9205 15.8976C57.614 15.8976 58.1763 16.4598 58.1763 17.1534C58.1763 17.8469 57.614 18.4091 56.9205 18.4091C56.227 18.4091 55.6648 17.8469 55.6648 17.1534Z" fill="#FC3150"/>
<path d="M55.6648 3.16073C55.6648 2.4672 56.227 1.90497 56.9205 1.90497C57.614 1.90497 58.1763 2.4672 58.1763 3.16073C58.1763 3.85426 57.614 4.41647 56.9205 4.41647C56.227 4.41647 55.6648 3.85426 55.6648 3.16073Z" fill="#FC3150"/>
<path d="M1274.81 114.408C1274.81 113.615 1274.33 112.973 1273.74 112.973C1273.14 112.973 1272.66 113.615 1272.66 114.408C1272.66 115.201 1273.14 115.843 1273.74 115.843C1274.33 115.843 1274.81 115.201 1274.81 114.408Z" fill="#FC3150"/>
<path d="M1274.81 100.236C1274.81 99.5425 1274.33 98.9803 1273.74 98.9803C1273.14 98.9803 1272.66 99.5425 1272.66 100.236C1272.66 100.93 1273.14 101.492 1273.74 101.492C1274.33 101.492 1274.81 100.93 1274.81 100.236Z" fill="#FC3150"/>
<path d="M1274.81 86.064C1274.81 85.4695 1274.33 84.9876 1273.74 84.9876C1273.14 84.9876 1272.66 85.4695 1272.66 86.064C1272.66 86.6585 1273.14 87.1404 1273.74 87.1404C1274.33 87.1404 1274.81 86.6585 1274.81 86.064Z" fill="#FC3150"/>
<path d="M1274.81 72.0714C1274.81 71.4769 1274.33 70.995 1273.74 70.995C1273.14 70.995 1272.66 71.4769 1272.66 72.0714C1272.66 72.6658 1273.14 73.1477 1273.74 73.1477C1274.33 73.1477 1274.81 72.6658 1274.81 72.0714Z" fill="#FC3150"/>
<path d="M1274.81 57.7199C1274.81 57.1255 1274.33 56.6436 1273.74 56.6436C1273.14 56.6436 1272.66 57.1255 1272.66 57.7199C1272.66 58.3144 1273.14 58.7963 1273.74 58.7963C1274.33 58.7963 1274.81 58.3144 1274.81 57.7199Z" fill="#FC3150"/>
<path d="M1274.81 43.9067C1274.81 43.2131 1274.33 42.6509 1273.74 42.6509C1273.14 42.6509 1272.66 43.2131 1272.66 43.9067C1272.66 44.6002 1273.14 45.1624 1273.74 45.1624C1274.33 45.1624 1274.81 44.6002 1274.81 43.9067Z" fill="#FC3150"/>
<path d="M1274.81 29.914C1274.81 29.2205 1274.33 28.6582 1273.74 28.6582C1273.14 28.6582 1272.66 29.2205 1272.66 29.914C1272.66 30.6075 1273.14 31.1697 1273.74 31.1697C1274.33 31.1697 1274.81 30.6075 1274.81 29.914Z" fill="#FC3150"/>
<path d="M1274.81 15.9214C1274.81 15.2278 1274.33 14.6656 1273.74 14.6656C1273.14 14.6656 1272.66 15.2278 1272.66 15.9214C1272.66 16.6149 1273.14 17.1771 1273.74 17.1771C1274.33 17.1771 1274.81 16.6149 1274.81 15.9214Z" fill="#FC3150"/>
<path d="M1289.16 114.408C1289.16 113.616 1288.68 112.973 1288.09 112.973C1287.49 112.973 1287.01 113.616 1287.01 114.408C1287.01 115.201 1287.49 115.843 1288.09 115.843C1288.68 115.843 1289.16 115.201 1289.16 114.408Z" fill="#FC3150"/>
<path d="M1289.16 100.236C1289.16 99.5425 1288.68 98.9803 1288.09 98.9803C1287.49 98.9803 1287.01 99.5425 1287.01 100.236C1287.01 100.93 1287.49 101.492 1288.09 101.492C1288.68 101.492 1289.16 100.93 1289.16 100.236Z" fill="#FC3150"/>
<path d="M1289.16 86.064C1289.16 85.4695 1288.68 84.9876 1288.09 84.9876C1287.49 84.9876 1287.01 85.4695 1287.01 86.064C1287.01 86.6585 1287.49 87.1404 1288.09 87.1404C1288.68 87.1404 1289.16 86.6585 1289.16 86.064Z" fill="#FC3150"/>
<path d="M1289.16 72.0714C1289.16 71.4769 1288.68 70.995 1288.09 70.995C1287.49 70.995 1287.01 71.4769 1287.01 72.0714C1287.01 72.6658 1287.49 73.1477 1288.09 73.1477C1288.68 73.1477 1289.16 72.6658 1289.16 72.0714Z" fill="#FC3150"/>
<path d="M1289.16 57.7199C1289.16 57.1255 1288.68 56.6436 1288.09 56.6436C1287.49 56.6436 1287.01 57.1255 1287.01 57.7199C1287.01 58.3144 1287.49 58.7963 1288.09 58.7963C1288.68 58.7963 1289.16 58.3144 1289.16 57.7199Z" fill="#FC3150"/>
<path d="M1289.16 43.9067C1289.16 43.2131 1288.68 42.6509 1288.09 42.6509C1287.49 42.6509 1287.01 43.2131 1287.01 43.9067C1287.01 44.6002 1287.49 45.1624 1288.09 45.1624C1288.68 45.1624 1289.16 44.6002 1289.16 43.9067Z" fill="#FC3150"/>
<path d="M1289.16 29.914C1289.16 29.2205 1288.68 28.6582 1288.09 28.6582C1287.49 28.6582 1287.01 29.2205 1287.01 29.914C1287.01 30.6075 1287.49 31.1697 1288.09 31.1697C1288.68 31.1697 1289.16 30.6075 1289.16 29.914Z" fill="#FC3150"/>
<path d="M1289.16 15.9214C1289.16 15.2278 1288.68 14.6656 1288.09 14.6656C1287.49 14.6656 1287.01 15.2278 1287.01 15.9214C1287.01 16.6149 1287.49 17.1771 1288.09 17.1771C1288.68 17.1771 1289.16 16.6149 1289.16 15.9214Z" fill="#FC3150"/>
<path d="M1303.16 114.408C1303.16 113.616 1302.68 112.973 1302.08 112.973C1301.49 112.973 1301.01 113.616 1301.01 114.408C1301.01 115.201 1301.49 115.843 1302.08 115.843C1302.68 115.843 1303.16 115.201 1303.16 114.408Z" fill="#FC3150"/>
<path d="M1303.16 100.236C1303.16 99.5425 1302.68 98.9803 1302.08 98.9803C1301.49 98.9803 1301.01 99.5425 1301.01 100.236C1301.01 100.93 1301.49 101.492 1302.08 101.492C1302.68 101.492 1303.16 100.93 1303.16 100.236Z" fill="#FC3150"/>
<path d="M1303.16 86.064C1303.16 85.4695 1302.68 84.9876 1302.08 84.9876C1301.49 84.9876 1301.01 85.4695 1301.01 86.064C1301.01 86.6585 1301.49 87.1404 1302.08 87.1404C1302.68 87.1404 1303.16 86.6585 1303.16 86.064Z" fill="#FC3150"/>
<path d="M1303.16 72.0714C1303.16 71.4769 1302.68 70.995 1302.08 70.995C1301.49 70.995 1301.01 71.4769 1301.01 72.0714C1301.01 72.6658 1301.49 73.1477 1302.08 73.1477C1302.68 73.1477 1303.16 72.6658 1303.16 72.0714Z" fill="#FC3150"/>
<path d="M1303.16 57.7199C1303.16 57.1255 1302.68 56.6436 1302.08 56.6436C1301.49 56.6436 1301.01 57.1255 1301.01 57.7199C1301.01 58.3144 1301.49 58.7963 1302.08 58.7963C1302.68 58.7963 1303.16 58.3144 1303.16 57.7199Z" fill="#FC3150"/>
<path d="M1303.16 43.9067C1303.16 43.2131 1302.68 42.6509 1302.08 42.6509C1301.49 42.6509 1301.01 43.2131 1301.01 43.9067C1301.01 44.6002 1301.49 45.1624 1302.08 45.1624C1302.68 45.1624 1303.16 44.6002 1303.16 43.9067Z" fill="#FC3150"/>
<path d="M1303.16 29.914C1303.16 29.2205 1302.68 28.6582 1302.08 28.6582C1301.49 28.6582 1301.01 29.2205 1301.01 29.914C1301.01 30.6075 1301.49 31.1697 1302.08 31.1697C1302.68 31.1697 1303.16 30.6075 1303.16 29.914Z" fill="#FC3150"/>
<path d="M1303.16 15.9214C1303.16 15.2278 1302.68 14.6656 1302.08 14.6656C1301.49 14.6656 1301.01 15.2278 1301.01 15.9214C1301.01 16.6149 1301.49 17.1771 1302.08 17.1771C1302.68 17.1771 1303.16 16.6149 1303.16 15.9214Z" fill="#FC3150"/>
<path d="M1317.51 114.408C1317.51 113.616 1316.95 112.973 1316.25 112.973C1315.56 112.973 1315 113.616 1315 114.408C1315 115.201 1315.56 115.843 1316.25 115.843C1316.95 115.843 1317.51 115.201 1317.51 114.408Z" fill="#FC3150"/>
<path d="M1317.51 100.236C1317.51 99.5425 1316.95 98.9803 1316.25 98.9803C1315.56 98.9803 1315 99.5425 1315 100.236C1315 100.93 1315.56 101.492 1316.25 101.492C1316.95 101.492 1317.51 100.93 1317.51 100.236Z" fill="#FC3150"/>
<path d="M1317.51 86.064C1317.51 85.4695 1316.95 84.9876 1316.25 84.9876C1315.56 84.9876 1315 85.4695 1315 86.064C1315 86.6585 1315.56 87.1404 1316.25 87.1404C1316.95 87.1404 1317.51 86.6585 1317.51 86.064Z" fill="#FC3150"/>
<path d="M1317.51 72.0714C1317.51 71.4769 1316.95 70.995 1316.25 70.995C1315.56 70.995 1315 71.4769 1315 72.0714C1315 72.6658 1315.56 73.1477 1316.25 73.1477C1316.95 73.1477 1317.51 72.6658 1317.51 72.0714Z" fill="#FC3150"/>
<path d="M1317.51 57.7199C1317.51 57.1255 1316.95 56.6436 1316.25 56.6436C1315.56 56.6436 1315 57.1255 1315 57.7199C1315 58.3144 1315.56 58.7963 1316.25 58.7963C1316.95 58.7963 1317.51 58.3144 1317.51 57.7199Z" fill="#FC3150"/>
<path d="M1317.51 43.9067C1317.51 43.2131 1316.95 42.6509 1316.25 42.6509C1315.56 42.6509 1315 43.2131 1315 43.9067C1315 44.6002 1315.56 45.1624 1316.25 45.1624C1316.95 45.1624 1317.51 44.6002 1317.51 43.9067Z" fill="#FC3150"/>
<path d="M1317.51 29.914C1317.51 29.2205 1316.95 28.6582 1316.25 28.6582C1315.56 28.6582 1315 29.2205 1315 29.914C1315 30.6075 1315.56 31.1697 1316.25 31.1697C1316.95 31.1697 1317.51 30.6075 1317.51 29.914Z" fill="#FC3150"/>
<path d="M1317.51 15.9214C1317.51 15.2278 1316.95 14.6656 1316.25 14.6656C1315.56 14.6656 1315 15.2278 1315 15.9214C1315 16.6149 1315.56 17.1771 1316.25 17.1771C1316.95 17.1771 1317.51 16.6149 1317.51 15.9214Z" fill="#FC3150"/>
<path d="M117.428 35.4082L129.121 23.6524L129.456 23.3152L129.791 23.6524L141.484 35.4082L146.731 30.1325L135.035 18.373L134.703 18.0395L135.035 17.7059L146.731 5.94645L141.484 0.670707L129.791 12.4265L129.456 12.7637L129.121 12.4265L117.428 0.670705L112.181 5.94645L123.877 17.7059L124.209 18.0395L123.877 18.373L112.181 30.1325L117.428 35.4082Z" fill="white" stroke="#372521" stroke-width="0.945946"/>
<path d="M1245.35 110.695L1226.94 92.1848L1226.41 91.6539L1225.88 92.1848L1207.47 110.695L1199.21 102.388L1217.63 83.8722L1218.15 83.3471L1217.63 82.8219L1199.21 64.3062L1207.47 55.9994L1225.88 74.5094L1226.41 75.0403L1226.94 74.5094L1245.35 55.9994L1253.61 64.3062L1235.19 82.8219L1234.67 83.3471L1235.19 83.8722L1253.61 102.388L1245.35 110.695Z" fill="white" stroke="#372521" stroke-width="1.48942"/>
<path d="M249.009 182.273L270.17 160.998L270.777 160.387L271.384 160.998L292.544 182.273L302.041 172.725L280.874 151.443L280.273 150.84L280.874 150.236L302.041 128.954L292.544 119.406L271.384 140.681L270.777 141.292L270.17 140.681L249.009 119.406L239.513 128.954L260.68 150.236L261.28 150.84L260.68 151.443L239.513 172.725L249.009 182.273Z" fill="white" stroke="#372521" stroke-width="1.71196"/>
<path d="M1249.12 511.964L1265.79 528.634L1273.08 521.35L1256.41 504.679L1255.8 504.074L1256.41 503.469L1273.08 486.798L1265.79 479.514L1249.12 496.184L1248.52 496.79L1247.91 496.184L1231.24 479.514L1223.96 486.798L1240.63 503.469L1241.23 504.074L1240.63 504.679L1223.96 521.35L1231.24 528.634L1247.91 511.964L1248.52 511.358L1249.12 511.964Z" fill="white" stroke="#372521" stroke-width="1.71196"/>
<g opacity="0.15">
<path d="M1096.17 359.355C1093.16 358.262 1090.31 357.237 1087.48 356.181C1087.14 356.021 1086.85 355.78 1086.62 355.481L1081.33 349.205C1081.82 348.43 1082.3 347.655 1082.79 346.895C1084.29 345.646 1085.7 344.474 1087.09 343.253C1087.77 342.651 1088.61 342.258 1089.51 342.124C1091.74 341.77 1093.96 341.344 1096.18 340.974C1096.65 340.892 1097.13 340.865 1097.71 340.809C1098.27 343.89 1098.82 346.875 1099.34 349.876C1099.38 350.176 1099.34 350.481 1099.24 350.765C1098.24 353.589 1097.23 356.381 1096.17 359.355Z" fill="#FC3150"/>
<path d="M1124.59 334.935C1125.31 334.755 1125.81 334.617 1126.36 334.521L1126.33 334.456C1131.24 333.594 1136.15 332.699 1141.22 332.04C1142.18 331.885 1143.08 331.466 1143.81 330.828C1147.62 327.594 1151.45 324.409 1155.29 321.184C1155.7 320.853 1156.13 320.554 1156.65 320.154L1157.9 321.533C1161.05 325.25 1164.26 329.016 1167.4 332.82C1168.02 333.568 1168.83 334.133 1169.75 334.453C1174.39 336.115 1178.95 337.8 1183.68 339.521C1184.24 339.711 1184.79 339.965 1185.42 340.221L1184.85 342.021C1183.17 346.658 1181.54 351.289 1179.79 355.94C1179.44 356.848 1179.35 357.836 1179.53 358.792C1180.41 363.586 1181.23 368.451 1182.09 373.316L1182.35 375.162C1181.63 375.342 1181.1 375.471 1180.58 375.576C1175.66 376.439 1170.74 377.341 1165.83 378.18C1164.87 378.334 1163.97 378.754 1163.24 379.392C1159.43 382.625 1155.61 385.827 1151.77 389.036C1151.31 389.406 1150.86 389.712 1150.32 390.143C1146.72 385.889 1143.29 381.854 1139.92 377.765C1139.1 376.714 1137.98 375.93 1136.71 375.512C1132.23 373.949 1127.76 372.283 1123.31 370.649C1122.74 370.443 1122.2 370.205 1121.56 369.933C1121.76 369.27 1121.92 368.685 1122.14 368.133C1123.8 363.543 1125.36 358.982 1127.14 354.379C1127.53 353.362 1127.62 352.255 1127.41 351.185C1126.52 346.391 1125.69 341.574 1124.83 336.789C1124.75 336.237 1124.68 335.638 1124.59 334.935Z" fill="#FC3150"/>
<path d="M1178.48 303.136C1178.78 302.767 1179.11 302.417 1179.46 302.088L1179.36 302.117C1181.12 300.644 1182.88 299.154 1184.7 297.635C1185.34 297.073 1186.12 296.707 1186.96 296.581C1189.66 296.144 1192.34 295.659 1195.2 295.148C1195.53 296.94 1195.74 298.61 1196.17 300.239C1197.05 303.163 1196.78 306.313 1195.41 309.042C1194.76 310.588 1194.18 312.168 1193.7 313.774L1185.03 310.609C1184.71 310.448 1184.42 310.22 1184.19 309.941L1178.48 303.136Z" fill="#FC3150"/>
<path d="M1185.99 404.837L1186.15 405.59L1186.13 405.597C1186.31 406.45 1186.4 407.321 1186.38 408.192L1186.61 409.481C1186.67 409.842 1186.64 410.214 1186.53 410.561L1186.1 411.744C1185.9 412.563 1185.61 413.356 1185.24 414.11L1185.05 414.591L1183.45 419.015C1180.48 417.924 1177.63 416.899 1174.8 415.843C1174.63 415.772 1174.48 415.68 1174.34 415.567L1174.24 415.357L1174.19 415.261L1174.13 415.116L1168.82 408.808L1168.34 408.229C1168.57 408.021 1168.93 407.736 1169.05 407.62C1169.18 407.504 1169.28 407.339 1169.41 407.279C1170.3 406.507 1171.21 405.767 1172.11 404.995C1172.32 404.817 1172.48 404.583 1172.71 404.477C1173.22 403.964 1173.78 403.5 1174.38 403.089L1174.7 402.819C1175.09 402.433 1175.56 402.141 1176.07 401.964C1176.45 401.887 1176.81 401.833 1177.19 401.756C1177.92 401.526 1178.68 401.379 1179.44 401.315C1179.59 401.303 1179.76 401.323 1179.89 401.263C1181.56 400.974 1183.36 400.64 1185.18 400.323L1185.99 404.837Z" fill="#FC3150"/>
</g>
<g opacity="0.15">
<path d="M86.1103 307.647C82.4033 306.299 78.8807 305.034 75.3886 303.73C74.971 303.533 74.6078 303.236 74.3308 302.866L67.8053 295.121C68.4 294.164 68.9948 293.207 69.5989 292.27C71.4466 290.728 73.1936 289.281 74.9127 287.775C75.7512 287.031 76.7875 286.547 77.8959 286.381C80.6478 285.944 83.3823 285.419 86.1249 284.962C86.7071 284.86 87.2973 284.827 88.0162 284.758C88.7024 288.561 89.3819 292.245 90.0215 295.949C90.071 296.319 90.0308 296.695 89.9044 297.046C88.6737 300.532 87.4244 303.977 86.1103 307.647Z" fill="#FC3150"/>
<path d="M121.19 277.508C122.08 277.286 122.703 277.116 123.374 276.997L123.337 276.917C129.405 275.853 135.455 274.748 141.714 273.935C142.9 273.744 144.009 273.226 144.916 272.439C149.617 268.448 154.347 264.517 159.077 260.536C159.589 260.127 160.119 259.758 160.761 259.265L162.307 260.968C166.195 265.555 170.159 270.203 174.024 274.898C174.791 275.822 175.795 276.518 176.928 276.913C182.66 278.965 188.282 281.044 194.12 283.168C194.811 283.403 195.491 283.716 196.268 284.032L195.562 286.254C193.487 291.977 191.481 297.693 189.317 303.433C188.885 304.554 188.774 305.773 188.999 306.953C190.091 312.87 191.103 318.874 192.164 324.879L192.477 327.158C191.587 327.379 190.935 327.539 190.293 327.669C184.224 328.733 178.154 329.847 172.096 330.882C170.91 331.072 169.801 331.59 168.894 332.378C164.193 336.369 159.473 340.32 154.733 344.281C154.171 344.737 153.621 345.116 152.949 345.648C148.509 340.397 144.268 335.417 140.118 330.37C139.099 329.073 137.72 328.105 136.154 327.589C130.625 325.66 125.11 323.604 119.613 321.588C118.912 321.333 118.242 321.04 117.456 320.704C117.703 319.885 117.899 319.163 118.162 318.482C120.216 312.817 122.141 307.188 124.333 301.507C124.815 300.251 124.932 298.885 124.672 297.565C123.58 291.648 122.547 285.703 121.483 279.796C121.383 279.115 121.305 278.376 121.19 277.508Z" fill="#FC3150"/>
<path d="M187.704 238.262C188.081 237.806 188.486 237.373 188.916 236.968L188.788 237.003C190.967 235.185 193.136 233.347 195.386 231.471C196.169 230.778 197.136 230.326 198.17 230.171C201.504 229.632 204.81 229.033 208.343 228.402C208.747 230.614 209.007 232.675 209.534 234.685C210.62 238.294 210.287 242.182 208.601 245.55C207.794 247.459 207.088 249.408 206.484 251.391L195.791 247.484C195.391 247.285 195.037 247.004 194.752 246.66L187.704 238.262Z" fill="#FC3150"/>
<path d="M196.975 363.783L197.167 364.712L197.147 364.721C197.372 365.774 197.476 366.848 197.456 367.924L197.738 369.514C197.817 369.961 197.782 370.42 197.635 370.848L197.105 372.308C196.863 373.318 196.508 374.298 196.047 375.228L195.815 375.822L193.835 381.282C190.177 379.935 186.655 378.67 183.163 377.366C182.958 377.28 182.766 377.166 182.592 377.027L182.471 376.768L182.415 376.648L182.332 376.469L175.788 368.684L175.187 367.97C175.479 367.713 175.92 367.361 176.071 367.217C176.223 367.074 176.346 366.871 176.505 366.797C177.61 365.844 178.734 364.931 179.84 363.978C180.101 363.759 180.305 363.469 180.583 363.339C181.215 362.706 181.904 362.132 182.642 361.626L183.043 361.292C183.518 360.816 184.095 360.455 184.731 360.237C185.195 360.142 185.649 360.075 186.113 359.98C187.015 359.697 187.945 359.514 188.887 359.436C189.074 359.421 189.28 359.446 189.439 359.372C191.501 359.015 193.732 358.604 195.972 358.212L196.975 363.783Z" fill="#FC3150"/>
</g>
<path d="M37.2243 598.295L36.398 597.2L44.3444 591.175L38.3522 583.204L39.4467 582.377L45.4388 590.349L53.4126 584.327L54.2388 585.422L46.2925 591.447L52.2846 599.418L51.1902 600.245L45.1706 592.27L37.2243 598.295Z" fill="#372521"/>
<path d="M1345.86 359.381L1347.13 359.892L1343.44 369.156L1352.69 372.885L1352.18 374.158L1342.93 370.429L1339.21 379.704L1337.94 379.194L1341.63 369.929L1332.38 366.2L1332.89 364.927L1342.17 368.645L1345.86 359.381Z" fill="#372521"/>
<path d="M106.128 537.506L105.302 536.411L113.248 530.386L107.256 522.414L108.35 521.588L114.342 529.559L122.316 523.538L123.142 524.633L115.196 530.658L121.188 538.629L120.094 539.455L114.074 531.48L106.128 537.506Z" fill="#372521"/>
<path d="M1229.86 215.381L1231.13 215.892L1227.44 225.156L1236.69 228.885L1236.18 230.158L1226.93 226.429L1223.21 235.704L1221.94 235.194L1225.63 225.929L1216.38 222.2L1216.89 220.927L1226.17 224.645L1229.86 215.381Z" fill="#372521"/>
<path d="M1384.51 206.609L1383.69 207.704L1391.63 213.729L1385.64 221.7L1386.74 222.527L1392.73 214.555L1400.7 220.577L1401.53 219.482L1393.58 213.457L1399.57 205.486L1398.48 204.659L1392.46 212.634L1384.51 206.609Z" fill="#372521"/>
<path d="M287.776 507.166L288.545 508.041L233.888 556.138L179.231 604.236L178.462 603.362L287.776 507.166Z" fill="#372521"/>
</svg>
