<svg width="318" height="274" viewBox="0 0 318 274" fill="none" xmlns="http://www.w3.org/2000/svg">
<path d="M170.686 151.388C166.684 130.512 169.02 117.118 163.838 100.829C158.903 97.2466 156.29 90.1709 155.462 83.4665C154.634 76.7621 155.152 69.8795 153.7 63.2754C152.995 60.0961 151.829 56.9521 151.963 53.6956C152.097 50.4391 154.031 46.9313 157.25 46.3545C158.157 46.2085 159.059 46.2763 159.986 46.2624C163.061 46.2319 166.016 45.2134 169.028 44.5538C179.841 42.1724 186.955 30.1786 201.995 42.6128C204.229 44.461 207.738 47.9636 210.023 49.7649C215.136 53.8421 214.644 61.6115 213.691 68.0799C212.569 75.5441 211.294 83.3816 206.565 89.2574C205.144 91.0166 203.457 92.567 202.38 94.5419C200.218 98.5514 201.084 103.448 201.978 107.914C203.99 117.76 205.981 127.589 207.549 137.08C198.596 141.506 189.586 145.941 179.961 148.596C176.528 149.536 173.041 150.253 170.683 151.369L170.686 151.388Z" fill="#FFDFC6"/>
<path d="M191.667 175.088C174.97 157.535 158.404 144.65 142.431 136.763L141.738 136.429C136.291 133.762 124.934 128.192 123.226 118.317C122.309 112.983 124.483 108.08 126.058 104.514C128.996 97.8615 133.864 92.0022 140.106 87.5871L141.261 89.222C135.296 93.4373 130.672 99.0056 127.874 105.326C126.315 108.87 124.37 113.271 125.171 118.004C126.698 126.881 137.445 132.143 142.619 134.68L143.315 135.032C159.495 143.002 176.242 156.052 193.102 173.772L191.657 175.147L191.667 175.088Z" fill="#696969"/>
<g style="mix-blend-mode:soft-light">
<path opacity="0.65" d="M183.789 89.5178C183.789 89.5178 183.789 89.5178 183.77 89.5209C183.449 89.5726 183.139 89.332 183.106 89.008C182.624 85.0564 182.218 80.4922 183.605 76.3559C185.746 70.0448 191.493 65.9226 196.686 62.5677C196.967 62.3868 197.328 62.4642 197.509 62.745C197.69 63.0258 197.613 63.387 197.332 63.5678C192.296 66.8198 186.738 70.7953 184.732 76.7361C183.403 80.6307 183.773 84.852 184.283 88.8571C184.334 89.1781 184.11 89.4661 183.789 89.5178V89.5178Z" fill="black"/>
</g>
<g style="mix-blend-mode:soft-light">
<path opacity="0.65" d="M180.293 82.3714C180.293 82.3714 180.218 82.3836 180.18 82.3897C179.85 82.3847 179.594 82.1161 179.598 81.786C179.675 78.7713 179.103 75.7059 177.936 72.9108C177.809 72.602 177.946 72.2506 178.255 72.1234C178.564 71.9962 178.915 72.1333 179.042 72.4421C180.252 75.3851 180.87 78.6174 180.781 81.7893C180.77 82.0816 180.558 82.3288 180.274 82.3745L180.293 82.3714Z" fill="black"/>
</g>
<path d="M244.806 38.6595C252.558 31.948 254.212 20.214 248.072 11.5567C241.931 2.89939 230.336 0.544725 221.433 5.64026L233.121 22.1593L244.809 38.6784L244.806 38.6595Z" fill="#C4C4C4"/>
<path d="M217.789 8.51308L212.469 15.0459C211.06 16.7644 210.141 18.7528 209.677 20.8033L217.988 32.8302L226.56 44.6792C228.653 44.9232 230.83 44.7274 232.915 43.9653L240.844 41.1188L229.34 24.783L217.789 8.51308Z" fill="#C4C4C4"/>
<path d="M222.327 46.6591L214.355 35.4106L206.383 24.1622L141.66 75.23C140.561 76.1044 140.557 78.0034 141.637 79.5341L145.119 84.4356L148.586 89.359C149.665 90.8897 151.47 91.5094 152.646 90.7581L222.327 46.6591Z" fill="#696969"/>
<path d="M244.856 38.7289L244.806 38.6595L233.118 22.1404L221.411 5.62441L221.361 5.55497C220.908 4.91114 220 4.80563 219.447 5.34027L217.892 6.8693C217.459 7.30712 217.399 8.01421 217.773 8.535L229.362 24.7989L240.866 41.1346C241.24 41.6554 241.912 41.8571 242.467 41.574L244.425 40.6193C245.106 40.2772 245.312 39.3917 244.859 38.7478L244.856 38.7289Z" fill="#B0ABAB"/>
<path d="M226.579 44.6762L217.991 32.849L209.68 20.8222L209.677 20.8033L206.402 24.1592L214.374 35.4076L222.327 46.6591L226.582 44.695L226.579 44.6762Z" fill="#B0ABAB"/>
<path d="M193.902 52.498L192.672 50.759L191.443 49.02C190.966 48.3414 190.03 48.1823 189.332 48.6627L175.527 58.4415C174.849 58.9189 174.69 59.855 175.17 60.5524L176.399 62.2914L177.629 64.0304C178.106 64.709 179.042 64.8681 179.74 64.3877L193.545 54.6089C194.223 54.1315 194.382 53.1954 193.902 52.498V52.498Z" fill="#B0ABAB"/>
<path d="M139.643 91.3229L136.81 87.3241L144.457 80.8038L148.341 86.2797L139.643 91.3229Z" fill="#696969"/>
<path d="M211.98 76.9368C212.98 71.0032 214 65.0664 215.003 59.1516C215.731 54.8891 216.065 52.9951 215.481 48.7695C214.939 44.8082 205.213 39.983 200.921 36.4322C198.577 34.5048 195.934 33.6133 194.257 35.7044C193.351 36.8188 193.346 38.4663 193.854 39.8178C194.399 41.2796 196.13 44.4487 197.964 46.5746C198.586 47.3073 202.695 50.9263 202.828 51.8734C202.941 52.572 202.873 53.3576 202.527 53.9751C197.775 62.3535 196.401 68.8511 196.722 75.1723C198.673 77.1825 200.994 78.8425 203.534 80.0604C205.569 81.0303 208.207 81.6514 209.95 80.2082C210.718 79.5616 211.7 78.8029 212.018 76.9308L211.98 76.9368Z" fill="#FFDFC6"/>
<path d="M226.129 201.303L224.162 201C225.255 193.715 218.38 187.714 214.881 185.953L215.777 184.182C220.772 186.689 227.28 193.66 226.129 201.303Z" fill="#696969"/>
<path d="M231.81 242.5C230.31 235.5 228.563 227.352 226.284 218.499C223.744 208.622 219.142 199.059 219.282 188.866C219.34 184.654 220.199 180.37 219.25 176.281C218.331 172.38 215.856 169.04 213.442 165.846C214.369 163.062 214.797 160.184 214.359 157.349C213.925 154.533 212.531 151.774 209.525 149.469C206.078 152.717 201.382 154.229 196.863 155.635C191.146 157.428 185.393 159.227 179.468 160.084C176.781 160.479 174.009 160.712 171.703 162.265C170.847 162.849 170.12 163.624 169.65 164.553C167.762 168.227 171.142 170.569 171.666 173.7C172.269 177.322 171.815 179.913 169.789 182.971C167.453 186.505 167.205 194.584 170.332 200.647C171.122 202.185 171.301 204.016 170.629 205.616C170.279 206.447 170.16 207.396 170.231 208.314C170.403 210.107 171.215 211.778 171.835 213.46C176.348 225.964 165.954 230.901 170.231 243.5C170.231 243.5 212.28 243.5 219.282 243.5C226.284 243.5 231.81 242.5 231.81 242.5Z" fill="#FFC2CC"/>
<path d="M210.244 138.777C210.304 136.268 209.997 133.761 209.315 131.333C209.029 130.275 208.645 129.214 207.844 128.452C207.065 127.705 205.753 127.374 204.91 127.917C196.277 129.037 188.411 133.597 179.842 135.113C176.698 135.678 173.484 135.808 170.304 136.03C169.385 136.101 168.41 136.18 167.609 136.619C165.172 137.961 165.411 141.487 166.356 143.988C168.13 148.507 168.593 153.546 167.942 158.28C167.828 160.216 169.441 161.932 171.267 162.568C173.097 163.222 175.103 163.054 177.048 162.857C181.071 162.461 185.082 161.989 189.081 161.441C194.219 160.749 199.414 159.931 204.058 157.614C206.892 156.208 209.446 154.266 211.568 151.929C212.637 150.75 213.61 149.45 214.064 147.944C214.538 146.434 214.428 144.67 213.469 143.41C213.098 142.908 212.607 142.503 212.166 142.051C210.749 140.594 209.889 138.621 210.247 138.796L210.244 138.777Z" fill="#FF7B90"/>
<g style="mix-blend-mode:soft-light">
<path opacity="0.65" d="M184.799 104.445C183.1 104.719 181.382 104.879 179.681 104.901C179.354 104.915 179.079 104.65 179.084 104.32C179.07 103.993 179.335 103.717 179.665 103.722C186.253 103.61 192.92 101.587 198.438 97.9664C198.719 97.7856 199.08 97.863 199.261 98.1438C199.442 98.4246 199.364 98.7858 199.084 98.9666C194.805 101.748 189.862 103.649 184.802 104.464L184.799 104.445Z" fill="black"/>
</g>
<g style="mix-blend-mode:soft-light">
<path opacity="0.65" d="M173.464 105.148C173.464 105.148 173.351 105.166 173.291 105.156L167.941 104.41C167.605 104.368 167.38 104.055 167.426 103.738C167.468 103.402 167.781 103.177 168.098 103.223L173.448 103.969C173.766 104.014 174.009 104.324 173.963 104.641C173.927 104.899 173.728 105.105 173.464 105.148Z" fill="black"/>
</g>
<g style="mix-blend-mode:soft-light">
<path opacity="0.65" d="M182.253 149.602C179.346 150.07 176.417 150.406 173.501 150.585C173.174 150.599 172.883 150.356 172.869 150.029C172.855 149.702 173.099 149.411 173.426 149.397C185.252 148.615 197.128 145.5 207.808 140.37C208.095 140.227 208.465 140.361 208.608 140.648C208.754 140.954 208.617 141.305 208.33 141.449C200.15 145.382 191.275 148.129 182.25 149.583L182.253 149.602Z" fill="black"/>
</g>
<g style="mix-blend-mode:soft-light">
<path opacity="0.65" d="M197.106 151.858C196.861 151.897 196.61 151.783 196.476 151.552C196.314 151.268 196.429 150.901 196.732 150.736C200.925 148.511 204.751 145.686 208.102 142.318C208.336 142.087 208.704 142.086 208.954 142.316C209.186 142.55 209.19 142.937 208.956 143.169C205.523 146.627 201.612 149.524 197.311 151.805C197.257 151.833 197.185 151.864 197.128 151.873L197.106 151.858Z" fill="black"/>
</g>
<g style="mix-blend-mode:soft-light">
<path opacity="0.65" d="M185.978 178.368C184.316 178.635 182.664 178.843 180.985 178.998C180.661 179.031 180.37 178.787 180.337 178.463C180.304 178.139 180.548 177.848 180.872 177.815C191.217 176.865 201.45 173.647 210.463 168.514C210.747 168.353 211.111 168.449 211.273 168.733C211.435 169.017 211.339 169.381 211.055 169.543C203.338 173.943 194.757 176.953 185.978 178.368Z" fill="black"/>
</g>
<g style="mix-blend-mode:soft-light">
<path opacity="0.65" d="M177.884 198.345C177.62 198.388 177.344 198.238 177.244 197.983C177.117 197.674 177.273 197.32 177.566 197.215C183.294 194.897 187.937 190.527 192.449 186.313C195.597 183.365 198.842 180.305 202.486 177.916C202.767 177.735 203.128 177.813 203.309 178.093C203.49 178.374 203.413 178.735 203.132 178.916C199.579 181.271 196.362 184.269 193.249 187.191C188.673 191.493 183.924 195.919 178.016 198.324C177.978 198.33 177.922 198.339 177.884 198.345V198.345Z" fill="black"/>
</g>
<path d="M201.097 38.7283C203.348 40.0703 204.829 41.0907 205.651 39.6992C205.819 39.4203 204.313 38.3652 201.935 36.8306C199.729 35.4039 197.612 33.9242 197.219 34.3748C196.58 35.0976 198.847 37.3862 201.097 38.7283V38.7283Z" fill="#FCDABD"/>
<path d="M182.71 52.4029C184.999 54.1068 188.459 53.1037 190.342 50.9602C192.227 48.8356 192.941 45.9312 193.559 43.1583C194.13 40.5676 194.666 37.8855 194.168 35.2732C193.669 32.661 191.831 30.1484 189.231 29.6376C185.55 28.9134 182.441 32.223 180.171 35.2039C179.017 32.9685 177.217 30.934 173.641 31.7038C169.354 32.627 168.915 35.9133 168.063 38.2007C165.792 36.6101 162.474 37.2996 160.455 39.194C158.436 41.0884 157.731 44.6499 157.399 47.396C156.239 46.6917 153.823 45.7638 150.898 47.6878C146.241 50.7627 148.174 56.1463 149.062 61.6595C149.339 63.3776 152.33 67.874 155.957 66.941C160.346 65.8077 159.49 62.5364 159.881 59.9164C160.046 63.1053 163.163 65.8575 166.355 65.5949C169.548 65.3324 172.19 62.1366 171.833 58.9592C172.074 61.0513 174.415 62.4756 176.513 62.1568C178.612 61.838 180.287 60.2122 181.241 58.3152C182.175 56.4212 182.492 54.2976 182.728 52.3999L182.71 52.4029Z" fill="#FFDFC6"/>
<g style="mix-blend-mode:soft-light" opacity="0.63">
<path opacity="0.65" d="M181.467 50.2205C181.165 50.2692 180.864 50.0852 180.793 49.7673C179.729 45.4448 179.558 41.6176 180.16 36.5809C180.203 36.2447 180.497 36.0231 180.833 36.0658C181.169 36.1085 181.391 36.4021 181.348 36.7383C180.762 41.6366 180.949 45.3256 181.971 49.5001C182.041 49.8181 181.86 50.1378 181.527 50.2303C181.527 50.2303 181.489 50.2364 181.47 50.2394L181.467 50.2205Z" fill="black"/>
</g>
<g style="mix-blend-mode:soft-light" opacity="0.63">
<path opacity="0.65" d="M170.854 56.8505C170.552 56.8992 170.27 56.7122 170.184 56.4162C168.763 51.202 168.088 45.8094 168.167 40.4115C168.172 40.0815 168.441 39.8251 168.771 39.83C169.101 39.8349 169.357 40.1036 169.352 40.4337C169.258 45.7372 169.93 50.9945 171.336 56.1143C171.426 56.4292 171.229 56.7708 170.911 56.8414C170.892 56.8444 170.873 56.8475 170.854 56.8505V56.8505Z" fill="black"/>
</g>
<g style="mix-blend-mode:soft-light" opacity="0.63">
<path opacity="0.65" d="M160.012 60.1278C159.71 60.1764 159.409 59.9924 159.341 59.6934C158.436 56.12 157.941 52.442 157.907 48.7475C157.912 48.4174 158.159 48.1452 158.508 48.1471C158.838 48.152 159.11 48.3988 159.108 48.7477C159.145 52.3447 159.607 55.9314 160.497 59.4104C160.586 59.7253 160.386 60.048 160.072 60.1375C160.072 60.1375 160.034 60.1436 160.015 60.1466L160.012 60.1278Z" fill="black"/>
</g>
<path d="M162.548 60.8426C162.018 58.2742 161.749 56.2448 164.749 55.6259C167.711 55.0131 168.449 56.9476 168.979 59.516C169.509 62.0844 168.603 65.0003 166.841 65.3618C165.059 65.7263 163.078 63.411 162.548 60.8426Z" fill="#FCDABD"/>
<path d="M173.214 57.1871C172.835 54.5944 172.679 52.5468 175.706 52.0978C178.696 51.6549 179.323 53.6265 179.721 56.2162C180.1 58.8089 179.05 61.6706 177.253 61.9407C175.457 62.2108 173.612 59.7768 173.233 57.1841L173.214 57.1871Z" fill="#FCDABD"/>
<path d="M183.116 46.9911C183.551 44.4027 184.027 42.4277 187.052 42.9282C190.018 43.419 190.022 45.491 189.587 48.0793C189.152 50.6676 187.271 53.0627 185.481 52.77C183.69 52.4774 182.681 49.5794 183.119 47.01L183.116 46.9911Z" fill="#FCDABD"/>
<path d="M151.719 63.3622C151.127 61.2493 150.8 59.5781 153.706 58.7417C156.578 57.9304 157.371 59.4878 157.96 61.5818C158.553 63.6947 157.781 66.2403 156.059 66.7309C154.336 67.2215 152.327 65.4531 151.719 63.3622Z" fill="#FCDABD"/>
<path d="M225.31 200C225.31 218.5 197 235 164.5 235C136.5 233.5 117.272 229.4 106.5 212C100 201.5 95.6171 183.665 109.5 179.5C124.5 175 128 195.5 120 209.5C110.622 225.911 101 227.719 80.5 229C56.5 230.5 63.5 243.5 33 243.5" stroke="#696969" stroke-width="2"/>
<path d="M5 243.5H318" stroke="#696969" stroke-width="2"/>
</svg>
